<svg width="376" height="221" viewBox="0 0 376 221" fill="none" xmlns="http://www.w3.org/2000/svg">
<g filter="url(#filter0_d_259_2203)">
<rect x="4" width="368" height="213" fill="white" shape-rendering="crispEdges"/>
<rect x="4.5" y="0.5" width="367" height="212" stroke="black" shape-rendering="crispEdges"/>
<g filter="url(#filter1_d_259_2203)">
<path d="M372 17.5777V194.995C371.997 199.652 370.089 204.118 366.694 207.41C363.3 210.701 358.698 212.551 353.9 212.551H22.1474C19.7675 212.557 17.4097 212.107 15.209 211.228C13.0083 210.348 11.0079 209.056 9.3223 207.426C7.6367 205.795 6.29898 203.858 5.38571 201.725C4.47244 199.592 4.00155 197.305 4 194.995V17.5777C3.99999 15.2675 4.46981 12.9799 5.38252 10.8463C6.29524 8.71261 7.6329 6.77477 9.31882 5.14386C11.0047 3.51295 13.0058 2.22104 15.2071 1.34219C17.4085 0.46335 19.767 0.0148587 22.1474 0.0224332H353.9C356.276 0.0209209 358.63 0.473886 360.826 1.35544C363.022 2.237 365.017 3.52988 366.698 5.16018C368.379 6.79049 369.712 8.72628 370.622 10.8569C371.532 12.9876 372 15.2714 372 17.5777Z" fill="url(#paint0_linear_259_2203)"/>
<g style="mix-blend-mode:soft-light" opacity="0.5">
<path d="M320.005 0.00012207L141.894 213H88.0596L266.17 0.00012207H320.005Z" fill="url(#paint1_linear_259_2203)"/>
<path d="M245.441 0.00012207L67.3189 213H37.2686L215.379 0.00012207H245.441Z" fill="url(#paint2_linear_259_2203)"/>
</g>
<path d="M36.7406 39.8462V26.2228H42.687C43.5584 26.2228 44.3009 26.3762 44.9146 26.683C45.5283 26.9899 45.9947 27.401 46.3138 27.9165C46.6451 28.432 46.8108 28.9966 46.8108 29.6102C46.8108 30.2362 46.6942 30.7517 46.461 31.1567C46.2401 31.5617 45.9701 31.8808 45.651 32.114C45.3442 32.3349 45.0619 32.4883 44.8041 32.5742V32.7031C45.1232 32.789 45.4792 32.9547 45.8719 33.2002C46.2769 33.4456 46.6267 33.7954 46.9213 34.2496C47.2158 34.6914 47.3631 35.2682 47.3631 35.9801C47.3631 36.6183 47.2097 37.2381 46.9029 37.8395C46.596 38.4286 46.1112 38.9134 45.4485 39.2939C44.7857 39.6621 43.9082 39.8462 42.8159 39.8462H36.7406ZM42.3556 28.3399H39.2443V31.8931H42.3556C43.0675 31.8931 43.5829 31.7151 43.902 31.3592C44.2212 31.0033 44.3807 30.586 44.3807 30.1073C44.3807 29.6409 44.2212 29.2298 43.902 28.8738C43.5829 28.5179 43.0675 28.3399 42.3556 28.3399ZM42.5397 33.8077H39.2443V37.729H42.5397C43.3497 37.729 43.9389 37.5327 44.3071 37.1399C44.6753 36.7472 44.8594 36.2869 44.8594 35.7592C44.8594 35.2437 44.6753 34.7896 44.3071 34.3968C43.9389 34.0041 43.3497 33.8077 42.5397 33.8077ZM48.8062 39.8462L53.5007 26.2228H56.7593L61.4722 39.8462H58.858L57.8823 36.9742H52.3961L51.4204 39.8462H48.8062ZM53.1141 34.8019H57.1643L55.1392 28.7818L53.1141 34.8019ZM63.4387 39.8462V26.2228H65.7215L71.9809 35.4646V26.2228H74.4662V39.8462H72.1834L65.924 30.7701V39.8462H63.4387ZM77.1203 39.8462V26.2228H79.6241V32.1324L84.8157 26.2412H87.9454L82.0358 32.7768L88.1847 39.8462H84.9446L79.6241 33.6236V39.8462H77.1203ZM94.3078 39.8462V26.2228H96.5906L102.85 35.4646V26.2228H105.335V39.8462H103.053L96.7931 30.7701V39.8462H94.3078ZM107.308 39.8462L112.003 26.2228H115.261L119.974 39.8462H117.36L116.384 36.9742H110.898L109.922 39.8462H107.308ZM111.616 34.8019H115.666L113.641 28.7818L111.616 34.8019ZM121.941 39.8462V26.2228H125.273L128.679 33.6052L132.158 26.2228H135.435V39.8462H132.968V29.9968L129.839 36.5508H127.519L124.408 29.96V39.8462H121.941ZM138.085 39.8462V26.2228H147.217V28.3952H140.589V31.8563H146.388V33.9734H140.589V37.6738H147.309V39.8462H138.085Z" fill="white"/>
<path d="M38.3488 152.534C37.4608 152.534 36.6688 152.354 35.9728 151.994C35.2888 151.634 34.7068 151.142 34.2268 150.518C33.7468 149.882 33.3808 149.15 33.1288 148.322C32.8888 147.494 32.7688 146.618 32.7688 145.694C32.7688 144.758 32.8888 143.876 33.1288 143.048C33.3808 142.22 33.7468 141.494 34.2268 140.87C34.7068 140.234 35.2888 139.742 35.9728 139.394C36.6688 139.034 37.4608 138.854 38.3488 138.854C39.2368 138.854 40.0228 139.034 40.7068 139.394C41.4028 139.742 41.9908 140.234 42.4708 140.87C42.9508 141.494 43.3108 142.22 43.5508 143.048C43.8028 143.876 43.9288 144.758 43.9288 145.694C43.9288 146.618 43.8028 147.494 43.5508 148.322C43.3108 149.15 42.9508 149.882 42.4708 150.518C41.9908 151.142 41.4028 151.634 40.7068 151.994C40.0228 152.354 39.2368 152.534 38.3488 152.534ZM38.3488 150.068C39.1408 150.068 39.7888 149.702 40.2928 148.97C40.8088 148.238 41.0668 147.146 41.0668 145.694C41.0668 144.242 40.8088 143.15 40.2928 142.418C39.7888 141.686 39.1408 141.32 38.3488 141.32C37.5568 141.32 36.9028 141.686 36.3868 142.418C35.8828 143.15 35.6308 144.242 35.6308 145.694C35.6308 147.146 35.8828 148.238 36.3868 148.97C36.9028 149.702 37.5568 150.068 38.3488 150.068ZM51.1143 139.034V152.354H48.3423V142.814L45.7683 142.832V141.158L46.1823 141.032C46.9383 140.816 47.5503 140.57 48.0183 140.294C48.4863 140.018 48.9363 139.652 49.3683 139.196L49.4943 139.034H51.1143ZM54.1683 152.354V150.446L56.4723 148.484C57.4323 147.68 58.2543 146.996 58.9383 146.432C59.6223 145.868 60.1443 145.34 60.5043 144.848C60.8643 144.356 61.0443 143.828 61.0443 143.264C61.0443 142.832 60.9423 142.472 60.7383 142.184C60.5343 141.884 60.2703 141.662 59.9463 141.518C59.6343 141.362 59.3043 141.284 58.9563 141.284C58.5363 141.284 58.1823 141.362 57.8943 141.518C57.6183 141.674 57.3963 141.878 57.2283 142.13C57.0723 142.37 56.9583 142.622 56.8863 142.886C56.8143 143.15 56.7783 143.378 56.7783 143.57H54.1143C54.1143 143.066 54.2103 142.544 54.4023 142.004C54.5943 141.452 54.8883 140.942 55.2843 140.474C55.6803 139.994 56.1903 139.604 56.8143 139.304C57.4383 139.004 58.1823 138.854 59.0463 138.854C59.9223 138.854 60.7203 139.028 61.4403 139.376C62.1603 139.712 62.7363 140.198 63.1683 140.834C63.6123 141.47 63.8343 142.22 63.8343 143.084C63.8343 143.9 63.6303 144.644 63.2223 145.316C62.8263 145.976 62.2683 146.624 61.5483 147.26C60.8283 147.884 60.0003 148.562 59.0643 149.294L58.3083 149.924H64.0143V152.354H54.1683ZM71.5754 152.534C70.7114 152.534 69.9794 152.426 69.3794 152.21C68.7914 151.994 68.3114 151.712 67.9394 151.364C67.5674 151.016 67.2734 150.65 67.0574 150.266C66.8534 149.87 66.7094 149.498 66.6254 149.15C66.5534 148.79 66.5174 148.496 66.5174 148.268H69.1454C69.1454 148.52 69.2174 148.802 69.3614 149.114C69.5054 149.414 69.7454 149.678 70.0814 149.906C70.4294 150.134 70.9154 150.248 71.5394 150.248C72.1874 150.248 72.7214 150.08 73.1414 149.744C73.5734 149.408 73.7894 148.958 73.7894 148.394C73.7894 147.89 73.6034 147.476 73.2314 147.152C72.8714 146.816 72.3554 146.648 71.6834 146.648H69.8834V144.506H71.7014C72.2774 144.506 72.7394 144.35 73.0874 144.038C73.4354 143.714 73.6094 143.318 73.6094 142.85C73.6094 142.358 73.4114 141.95 73.0154 141.626C72.6194 141.29 72.1274 141.122 71.5394 141.122C70.9874 141.122 70.5494 141.242 70.2254 141.482C69.9134 141.722 69.6854 142.004 69.5414 142.328C69.4094 142.652 69.3434 142.934 69.3434 143.174H66.7694C66.7694 142.958 66.8054 142.67 66.8774 142.31C66.9614 141.95 67.1054 141.572 67.3094 141.176C67.5134 140.78 67.7954 140.408 68.1554 140.06C68.5154 139.7 68.9714 139.412 69.5234 139.196C70.0874 138.968 70.7714 138.854 71.5754 138.854C72.3794 138.854 73.1414 139.004 73.8614 139.304C74.5934 139.592 75.1874 140.018 75.6434 140.582C76.0994 141.134 76.3274 141.806 76.3274 142.598C76.3274 143.138 76.2194 143.606 76.0034 144.002C75.7874 144.386 75.5234 144.704 75.2114 144.956C74.8994 145.208 74.5874 145.388 74.2754 145.496V145.604C74.8754 145.82 75.4034 146.168 75.8594 146.648C76.3274 147.116 76.5614 147.752 76.5614 148.556C76.5614 149.396 76.3274 150.116 75.8594 150.716C75.4034 151.304 74.7974 151.754 74.0414 152.066C73.2854 152.378 72.4634 152.534 71.5754 152.534ZM98.7571 152.354V149.636L92.3131 149.618V147.206L98.1091 139.034H101.547V147.296H103.599V149.636H101.547V152.354H98.7571ZM95.0491 147.296H98.7571V142.022L95.0491 147.296ZM111.01 152.534C110.11 152.534 109.342 152.39 108.706 152.102C108.07 151.814 107.548 151.448 107.14 151.004C106.744 150.56 106.45 150.098 106.258 149.618C106.078 149.126 105.988 148.676 105.988 148.268H108.562C108.562 148.268 108.58 148.37 108.616 148.574C108.664 148.778 108.766 149.012 108.922 149.276C109.078 149.54 109.318 149.774 109.642 149.978C109.966 150.182 110.404 150.284 110.956 150.284C111.508 150.284 111.964 150.17 112.324 149.942C112.684 149.702 112.954 149.402 113.134 149.042C113.314 148.682 113.404 148.304 113.404 147.908C113.404 147.5 113.314 147.116 113.134 146.756C112.954 146.384 112.684 146.084 112.324 145.856C111.976 145.616 111.538 145.496 111.01 145.496C110.602 145.496 110.266 145.562 110.002 145.694C109.738 145.814 109.528 145.958 109.372 146.126C109.216 146.282 109.102 146.426 109.03 146.558C108.97 146.678 108.94 146.738 108.94 146.738H106.204L107.374 139.034H115.222V141.446H109.264L108.796 144.488H108.868C108.928 144.428 109.048 144.308 109.228 144.128C109.42 143.948 109.708 143.78 110.092 143.624C110.476 143.456 110.986 143.372 111.622 143.372C112.582 143.372 113.398 143.588 114.07 144.02C114.742 144.452 115.246 145.01 115.582 145.694C115.93 146.366 116.104 147.08 116.104 147.836C116.104 148.424 115.996 148.994 115.78 149.546C115.576 150.098 115.264 150.602 114.844 151.058C114.424 151.502 113.896 151.862 113.26 152.138C112.624 152.402 111.874 152.534 111.01 152.534ZM124.018 152.534C123.094 152.534 122.29 152.372 121.606 152.048C120.922 151.712 120.352 151.262 119.896 150.698C119.452 150.122 119.122 149.474 118.906 148.754C118.69 148.022 118.582 147.26 118.582 146.468C118.582 145.592 118.714 144.71 118.978 143.822C119.254 142.922 119.68 142.1 120.256 141.356C120.844 140.6 121.594 139.994 122.506 139.538C123.418 139.082 124.522 138.854 125.818 138.854C126.346 138.854 126.802 138.89 127.186 138.962C127.57 139.022 127.762 139.052 127.762 139.052V141.518C127.762 141.518 127.66 141.506 127.456 141.482C127.264 141.446 127.018 141.41 126.718 141.374C126.418 141.338 126.118 141.32 125.818 141.32C124.894 141.32 124.12 141.506 123.496 141.878C122.872 142.25 122.392 142.724 122.056 143.3C121.732 143.876 121.54 144.482 121.48 145.118C121.6 144.914 121.786 144.692 122.038 144.452C122.29 144.2 122.626 143.984 123.046 143.804C123.478 143.624 124.018 143.534 124.666 143.534C125.626 143.534 126.43 143.744 127.078 144.164C127.726 144.572 128.212 145.106 128.536 145.766C128.86 146.426 129.022 147.116 129.022 147.836C129.022 148.412 128.914 148.982 128.698 149.546C128.494 150.098 128.182 150.602 127.762 151.058C127.354 151.502 126.838 151.862 126.214 152.138C125.59 152.402 124.858 152.534 124.018 152.534ZM124.018 150.248C124.69 150.248 125.242 150.032 125.674 149.6C126.106 149.168 126.322 148.616 126.322 147.944C126.322 147.26 126.106 146.708 125.674 146.288C125.242 145.856 124.69 145.64 124.018 145.64C123.358 145.64 122.806 145.856 122.362 146.288C121.93 146.708 121.714 147.26 121.714 147.944C121.714 148.616 121.93 149.168 122.362 149.6C122.806 150.032 123.358 150.248 124.018 150.248ZM133.044 152.354C133.104 150.974 133.308 149.702 133.656 148.538C134.004 147.362 134.418 146.312 134.898 145.388C135.378 144.452 135.852 143.654 136.32 142.994C136.788 142.322 137.178 141.806 137.49 141.446H130.902V139.034H140.586V141.014C140.586 141.014 140.43 141.188 140.118 141.536C139.818 141.872 139.44 142.364 138.984 143.012C138.528 143.66 138.066 144.452 137.598 145.388C137.142 146.312 136.746 147.362 136.41 148.538C136.074 149.702 135.876 150.974 135.816 152.354H133.044ZM160.891 152.534C159.979 152.534 159.139 152.384 158.371 152.084C157.615 151.772 157.003 151.334 156.535 150.77C156.079 150.194 155.851 149.504 155.851 148.7C155.851 148.076 155.971 147.554 156.211 147.134C156.451 146.714 156.727 146.384 157.039 146.144C157.351 145.892 157.627 145.718 157.867 145.622C158.119 145.514 158.245 145.46 158.245 145.46V145.352C158.245 145.352 158.137 145.304 157.921 145.208C157.717 145.112 157.477 144.956 157.201 144.74C156.937 144.524 156.703 144.236 156.499 143.876C156.295 143.504 156.193 143.054 156.193 142.526C156.193 141.782 156.397 141.14 156.805 140.6C157.225 140.048 157.789 139.622 158.497 139.322C159.217 139.01 160.015 138.854 160.891 138.854C161.779 138.854 162.577 139.01 163.285 139.322C164.005 139.622 164.569 140.048 164.977 140.6C165.397 141.14 165.607 141.776 165.607 142.508C165.607 143.048 165.499 143.504 165.283 143.876C165.079 144.236 164.839 144.524 164.563 144.74C164.299 144.956 164.059 145.112 163.843 145.208C163.639 145.304 163.537 145.352 163.537 145.352V145.46C163.549 145.46 163.675 145.514 163.915 145.622C164.155 145.718 164.431 145.892 164.743 146.144C165.055 146.384 165.331 146.714 165.571 147.134C165.811 147.554 165.931 148.076 165.931 148.7C165.931 149.504 165.703 150.194 165.247 150.77C164.791 151.334 164.179 151.772 163.411 152.084C162.655 152.384 161.815 152.534 160.891 152.534ZM160.891 144.434C161.491 144.434 161.989 144.272 162.385 143.948C162.793 143.612 162.997 143.198 162.997 142.706C162.997 142.202 162.799 141.788 162.403 141.464C162.007 141.14 161.503 140.978 160.891 140.978C160.291 140.978 159.793 141.14 159.397 141.464C159.001 141.788 158.803 142.202 158.803 142.706C158.803 143.21 159.001 143.624 159.397 143.948C159.793 144.272 160.291 144.434 160.891 144.434ZM160.891 150.374C161.419 150.374 161.857 150.278 162.205 150.086C162.565 149.882 162.829 149.63 162.997 149.33C163.177 149.03 163.267 148.712 163.267 148.376C163.267 148.064 163.177 147.764 162.997 147.476C162.829 147.176 162.565 146.93 162.205 146.738C161.857 146.546 161.419 146.45 160.891 146.45C160.363 146.45 159.925 146.546 159.577 146.738C159.229 146.93 158.965 147.176 158.785 147.476C158.605 147.764 158.515 148.064 158.515 148.376C158.515 148.712 158.605 149.03 158.785 149.33C158.965 149.63 159.229 149.882 159.577 150.086C159.937 150.278 160.375 150.374 160.891 150.374ZM173.365 138.854C174.289 138.854 175.093 139.022 175.777 139.358C176.461 139.682 177.025 140.132 177.469 140.708C177.913 141.272 178.243 141.92 178.459 142.652C178.687 143.372 178.801 144.128 178.801 144.92C178.801 145.796 178.663 146.684 178.387 147.584C178.111 148.472 177.685 149.294 177.109 150.05C176.533 150.794 175.783 151.394 174.859 151.85C173.947 152.306 172.849 152.534 171.565 152.534C171.037 152.534 170.581 152.498 170.197 152.426C169.813 152.366 169.621 152.336 169.621 152.336V149.87C169.621 149.87 169.717 149.888 169.909 149.924C170.113 149.948 170.365 149.978 170.665 150.014C170.965 150.05 171.265 150.068 171.565 150.068C172.489 150.068 173.263 149.882 173.887 149.51C174.511 149.138 174.985 148.664 175.309 148.088C175.645 147.512 175.843 146.906 175.903 146.27C175.783 146.474 175.597 146.702 175.345 146.954C175.093 147.194 174.751 147.404 174.319 147.584C173.899 147.764 173.359 147.854 172.699 147.854C171.751 147.854 170.953 147.65 170.305 147.242C169.657 146.822 169.171 146.282 168.847 145.622C168.523 144.962 168.361 144.272 168.361 143.552C168.361 142.976 168.463 142.412 168.667 141.86C168.883 141.296 169.195 140.792 169.603 140.348C170.023 139.892 170.545 139.532 171.169 139.268C171.793 138.992 172.525 138.854 173.365 138.854ZM173.365 141.14C172.693 141.14 172.141 141.356 171.709 141.788C171.277 142.22 171.061 142.772 171.061 143.444C171.061 144.128 171.277 144.686 171.709 145.118C172.141 145.538 172.693 145.748 173.365 145.748C174.025 145.748 174.571 145.538 175.003 145.118C175.435 144.686 175.651 144.128 175.651 143.444C175.651 142.772 175.435 142.22 175.003 141.788C174.571 141.356 174.025 141.14 173.365 141.14ZM186.544 152.534C185.656 152.534 184.864 152.354 184.168 151.994C183.484 151.634 182.902 151.142 182.422 150.518C181.942 149.882 181.576 149.15 181.324 148.322C181.084 147.494 180.964 146.618 180.964 145.694C180.964 144.758 181.084 143.876 181.324 143.048C181.576 142.22 181.942 141.494 182.422 140.87C182.902 140.234 183.484 139.742 184.168 139.394C184.864 139.034 185.656 138.854 186.544 138.854C187.432 138.854 188.218 139.034 188.902 139.394C189.598 139.742 190.186 140.234 190.666 140.87C191.146 141.494 191.506 142.22 191.746 143.048C191.998 143.876 192.124 144.758 192.124 145.694C192.124 146.618 191.998 147.494 191.746 148.322C191.506 149.15 191.146 149.882 190.666 150.518C190.186 151.142 189.598 151.634 188.902 151.994C188.218 152.354 187.432 152.534 186.544 152.534ZM186.544 150.068C187.336 150.068 187.984 149.702 188.488 148.97C189.004 148.238 189.262 147.146 189.262 145.694C189.262 144.242 189.004 143.15 188.488 142.418C187.984 141.686 187.336 141.32 186.544 141.32C185.752 141.32 185.098 141.686 184.582 142.418C184.078 143.15 183.826 144.242 183.826 145.694C183.826 147.146 184.078 148.238 184.582 148.97C185.098 149.702 185.752 150.068 186.544 150.068ZM199.31 139.034V152.354H196.538V142.814L193.964 142.832V141.158L194.378 141.032C195.134 140.816 195.746 140.57 196.214 140.294C196.682 140.018 197.132 139.652 197.564 139.196L197.69 139.034H199.31ZM215.889 152.354V150.446L218.193 148.484C219.153 147.68 219.975 146.996 220.659 146.432C221.343 145.868 221.865 145.34 222.225 144.848C222.585 144.356 222.765 143.828 222.765 143.264C222.765 142.832 222.663 142.472 222.459 142.184C222.255 141.884 221.991 141.662 221.667 141.518C221.355 141.362 221.025 141.284 220.677 141.284C220.257 141.284 219.903 141.362 219.615 141.518C219.339 141.674 219.117 141.878 218.949 142.13C218.793 142.37 218.679 142.622 218.607 142.886C218.535 143.15 218.499 143.378 218.499 143.57H215.835C215.835 143.066 215.931 142.544 216.123 142.004C216.315 141.452 216.609 140.942 217.005 140.474C217.401 139.994 217.911 139.604 218.535 139.304C219.159 139.004 219.903 138.854 220.767 138.854C221.643 138.854 222.441 139.028 223.161 139.376C223.881 139.712 224.457 140.198 224.889 140.834C225.333 141.47 225.555 142.22 225.555 143.084C225.555 143.9 225.351 144.644 224.943 145.316C224.547 145.976 223.989 146.624 223.269 147.26C222.549 147.884 221.721 148.562 220.785 149.294L220.029 149.924H225.735V152.354H215.889ZM233.296 152.534C232.432 152.534 231.7 152.426 231.1 152.21C230.512 151.994 230.032 151.712 229.66 151.364C229.288 151.016 228.994 150.65 228.778 150.266C228.574 149.87 228.43 149.498 228.346 149.15C228.274 148.79 228.238 148.496 228.238 148.268H230.866C230.866 148.52 230.938 148.802 231.082 149.114C231.226 149.414 231.466 149.678 231.802 149.906C232.15 150.134 232.636 150.248 233.26 150.248C233.908 150.248 234.442 150.08 234.862 149.744C235.294 149.408 235.51 148.958 235.51 148.394C235.51 147.89 235.324 147.476 234.952 147.152C234.592 146.816 234.076 146.648 233.404 146.648H231.604V144.506H233.422C233.998 144.506 234.46 144.35 234.808 144.038C235.156 143.714 235.33 143.318 235.33 142.85C235.33 142.358 235.132 141.95 234.736 141.626C234.34 141.29 233.848 141.122 233.26 141.122C232.708 141.122 232.27 141.242 231.946 141.482C231.634 141.722 231.406 142.004 231.262 142.328C231.13 142.652 231.064 142.934 231.064 143.174H228.49C228.49 142.958 228.526 142.67 228.598 142.31C228.682 141.95 228.826 141.572 229.03 141.176C229.234 140.78 229.516 140.408 229.876 140.06C230.236 139.7 230.692 139.412 231.244 139.196C231.808 138.968 232.492 138.854 233.296 138.854C234.1 138.854 234.862 139.004 235.582 139.304C236.314 139.592 236.908 140.018 237.364 140.582C237.82 141.134 238.048 141.806 238.048 142.598C238.048 143.138 237.94 143.606 237.724 144.002C237.508 144.386 237.244 144.704 236.932 144.956C236.62 145.208 236.308 145.388 235.996 145.496V145.604C236.596 145.82 237.124 146.168 237.58 146.648C238.048 147.116 238.282 147.752 238.282 148.556C238.282 149.396 238.048 150.116 237.58 150.716C237.124 151.304 236.518 151.754 235.762 152.066C235.006 152.378 234.184 152.534 233.296 152.534ZM246.953 152.354V149.636L240.509 149.618V147.206L246.305 139.034H249.743V147.296H251.795V149.636H249.743V152.354H246.953ZM243.245 147.296H246.953V142.022L243.245 147.296ZM259.206 152.534C258.306 152.534 257.538 152.39 256.902 152.102C256.266 151.814 255.744 151.448 255.336 151.004C254.94 150.56 254.646 150.098 254.454 149.618C254.274 149.126 254.184 148.676 254.184 148.268H256.758C256.758 148.268 256.776 148.37 256.812 148.574C256.86 148.778 256.962 149.012 257.118 149.276C257.274 149.54 257.514 149.774 257.838 149.978C258.162 150.182 258.6 150.284 259.152 150.284C259.704 150.284 260.16 150.17 260.52 149.942C260.88 149.702 261.15 149.402 261.33 149.042C261.51 148.682 261.6 148.304 261.6 147.908C261.6 147.5 261.51 147.116 261.33 146.756C261.15 146.384 260.88 146.084 260.52 145.856C260.172 145.616 259.734 145.496 259.206 145.496C258.798 145.496 258.462 145.562 258.198 145.694C257.934 145.814 257.724 145.958 257.568 146.126C257.412 146.282 257.298 146.426 257.226 146.558C257.166 146.678 257.136 146.738 257.136 146.738H254.4L255.57 139.034H263.418V141.446H257.46L256.992 144.488H257.064C257.124 144.428 257.244 144.308 257.424 144.128C257.616 143.948 257.904 143.78 258.288 143.624C258.672 143.456 259.182 143.372 259.818 143.372C260.778 143.372 261.594 143.588 262.266 144.02C262.938 144.452 263.442 145.01 263.778 145.694C264.126 146.366 264.3 147.08 264.3 147.836C264.3 148.424 264.192 148.994 263.976 149.546C263.772 150.098 263.46 150.602 263.04 151.058C262.62 151.502 262.092 151.862 261.456 152.138C260.82 152.402 260.07 152.534 259.206 152.534Z" fill="white"/>
<path d="M37.9869 181.263C37.3149 181.263 36.7409 181.184 36.2649 181.025C35.7982 180.857 35.4062 180.647 35.0889 180.395C34.7809 180.134 34.5336 179.863 34.3469 179.583C34.1602 179.294 34.0202 179.023 33.9269 178.771C33.8429 178.51 33.7869 178.3 33.7589 178.141C33.7402 177.973 33.7309 177.889 33.7309 177.889H35.9149C35.9149 177.889 35.9336 177.968 35.9709 178.127C36.0176 178.286 36.1109 178.472 36.2509 178.687C36.3909 178.892 36.6056 179.074 36.8949 179.233C37.1842 179.382 37.5762 179.457 38.0709 179.457C38.6776 179.457 39.1256 179.331 39.4149 179.079C39.7042 178.818 39.8489 178.51 39.8489 178.155C39.8489 177.838 39.7369 177.586 39.5129 177.399C39.2982 177.212 38.9622 177.072 38.5049 176.979L37.1189 176.713C36.5589 176.61 36.0362 176.447 35.5509 176.223C35.0749 175.999 34.6876 175.691 34.3889 175.299C34.0902 174.898 33.9409 174.384 33.9409 173.759C33.9409 173.124 34.0996 172.574 34.4169 172.107C34.7342 171.631 35.1776 171.267 35.7469 171.015C36.3256 170.754 37.0022 170.623 37.7769 170.623C38.5049 170.623 39.1069 170.73 39.5829 170.945C40.0682 171.15 40.4509 171.407 40.7309 171.715C41.0202 172.014 41.2302 172.317 41.3609 172.625C41.5009 172.933 41.5896 173.19 41.6269 173.395C41.6736 173.6 41.6969 173.703 41.6969 173.703H39.5689C39.5689 173.703 39.5502 173.638 39.5129 173.507C39.4849 173.376 39.4102 173.227 39.2889 173.059C39.1676 172.891 38.9809 172.742 38.7289 172.611C38.4862 172.48 38.1502 172.415 37.7209 172.415C37.1329 172.415 36.7082 172.546 36.4469 172.807C36.1856 173.059 36.0549 173.334 36.0549 173.633C36.0549 173.941 36.1856 174.179 36.4469 174.347C36.7082 174.515 37.0489 174.641 37.4689 174.725L38.9389 175.019C39.4989 175.122 40.0122 175.294 40.4789 175.537C40.9456 175.78 41.3142 176.106 41.5849 176.517C41.8649 176.918 42.0049 177.418 42.0049 178.015C42.0049 178.631 41.8509 179.186 41.5429 179.681C41.2349 180.166 40.7822 180.554 40.1849 180.843C39.5876 181.123 38.8549 181.263 37.9869 181.263ZM42.546 181.123L46.074 170.763H48.944L52.472 181.123H50.204L49.546 179.093H45.486L44.814 181.123H42.546ZM46.088 177.217H48.944L47.516 172.891L46.088 177.217ZM58.0517 181.263C57.2957 181.263 56.5957 181.118 55.9517 180.829C55.3171 180.54 54.8037 180.092 54.4117 179.485C54.0291 178.878 53.8377 178.09 53.8377 177.119V170.763H55.9937V177.119C55.9937 177.716 56.1617 178.22 56.4977 178.631C56.8337 179.032 57.3517 179.233 58.0517 179.233C58.7517 179.233 59.2651 179.032 59.5917 178.631C59.9277 178.22 60.0957 177.716 60.0957 177.119V170.763H62.2657V177.119C62.2657 178.09 62.0697 178.878 61.6777 179.485C61.2951 180.092 60.7817 180.54 60.1377 180.829C59.4937 181.118 58.7984 181.263 58.0517 181.263ZM64.1737 181.123V170.763H66.3297V179.247H71.3977V181.123H64.1737ZM81.2123 181.263C80.3443 181.263 79.5837 181.114 78.9303 180.815C78.277 180.516 77.731 180.115 77.2923 179.611C76.863 179.098 76.541 178.528 76.3263 177.903C76.1117 177.268 76.0043 176.62 76.0043 175.957C76.0043 175.294 76.1117 174.646 76.3263 174.011C76.5503 173.376 76.877 172.807 77.3063 172.303C77.745 171.79 78.2957 171.384 78.9583 171.085C79.621 170.777 80.3957 170.623 81.2823 170.623C81.973 170.623 82.5657 170.712 83.0603 170.889C83.5643 171.057 83.9843 171.281 84.3203 171.561C84.6563 171.832 84.9223 172.121 85.1183 172.429C85.3237 172.737 85.4777 173.031 85.5803 173.311C85.6923 173.582 85.7623 173.806 85.7903 173.983C85.8277 174.151 85.8463 174.235 85.8463 174.235H83.7043C83.7043 174.235 83.6763 174.151 83.6203 173.983C83.5643 173.815 83.4523 173.619 83.2843 173.395C83.1163 173.162 82.869 172.961 82.5423 172.793C82.225 172.616 81.805 172.527 81.2823 172.527C80.601 172.527 80.0317 172.695 79.5743 173.031C79.1263 173.358 78.7857 173.782 78.5523 174.305C78.3283 174.818 78.2163 175.355 78.2163 175.915C78.2163 176.494 78.333 177.049 78.5663 177.581C78.7997 178.104 79.1403 178.533 79.5883 178.869C80.0457 179.196 80.615 179.359 81.2963 179.359C82.043 179.359 82.631 179.168 83.0603 178.785C83.499 178.402 83.7603 177.884 83.8443 177.231H81.1563V175.537H85.9723V176.335C85.9723 177.418 85.7623 178.328 85.3423 179.065C84.9317 179.793 84.367 180.344 83.6483 180.717C82.939 181.081 82.127 181.263 81.2123 181.263ZM92.3009 181.263C91.4422 181.263 90.6862 181.114 90.0329 180.815C89.3795 180.507 88.8289 180.101 88.3809 179.597C87.9422 179.084 87.6109 178.51 87.3869 177.875C87.1722 177.24 87.0649 176.592 87.0649 175.929C87.0649 175.266 87.1722 174.622 87.3869 173.997C87.6109 173.362 87.9422 172.793 88.3809 172.289C88.8289 171.785 89.3795 171.384 90.0329 171.085C90.6862 170.777 91.4422 170.623 92.3009 170.623C93.1689 170.623 93.9295 170.777 94.5829 171.085C95.2362 171.384 95.7822 171.785 96.2209 172.289C96.6596 172.793 96.9862 173.362 97.2009 173.997C97.4249 174.622 97.5369 175.266 97.5369 175.929C97.5369 176.592 97.4249 177.24 97.2009 177.875C96.9862 178.51 96.6596 179.084 96.2209 179.597C95.7822 180.101 95.2362 180.507 94.5829 180.815C93.9295 181.114 93.1689 181.263 92.3009 181.263ZM92.3009 179.317C92.9542 179.317 93.5049 179.154 93.9529 178.827C94.4009 178.5 94.7369 178.08 94.9609 177.567C95.1849 177.044 95.2969 176.498 95.2969 175.929C95.2969 175.36 95.1849 174.818 94.9609 174.305C94.7369 173.792 94.4009 173.372 93.9529 173.045C93.5049 172.718 92.9542 172.555 92.3009 172.555C91.6475 172.555 91.0969 172.718 90.6489 173.045C90.2102 173.372 89.8789 173.792 89.6549 174.305C89.4309 174.818 89.3189 175.36 89.3189 175.929C89.3189 176.498 89.4309 177.044 89.6549 177.567C89.8789 178.08 90.2102 178.5 90.6489 178.827C91.0969 179.154 91.6475 179.317 92.3009 179.317ZM103.895 181.263C103.036 181.263 102.28 181.114 101.627 180.815C100.973 180.507 100.423 180.101 99.9746 179.597C99.536 179.084 99.2046 178.51 98.9806 177.875C98.766 177.24 98.6586 176.592 98.6586 175.929C98.6586 175.266 98.766 174.622 98.9806 173.997C99.2046 173.362 99.536 172.793 99.9746 172.289C100.423 171.785 100.973 171.384 101.627 171.085C102.28 170.777 103.036 170.623 103.895 170.623C104.763 170.623 105.523 170.777 106.177 171.085C106.83 171.384 107.376 171.785 107.815 172.289C108.253 172.793 108.58 173.362 108.795 173.997C109.019 174.622 109.131 175.266 109.131 175.929C109.131 176.592 109.019 177.24 108.795 177.875C108.58 178.51 108.253 179.084 107.815 179.597C107.376 180.101 106.83 180.507 106.177 180.815C105.523 181.114 104.763 181.263 103.895 181.263ZM103.895 179.317C104.548 179.317 105.099 179.154 105.547 178.827C105.995 178.5 106.331 178.08 106.555 177.567C106.779 177.044 106.891 176.498 106.891 175.929C106.891 175.36 106.779 174.818 106.555 174.305C106.331 173.792 105.995 173.372 105.547 173.045C105.099 172.718 104.548 172.555 103.895 172.555C103.241 172.555 102.691 172.718 102.243 173.045C101.804 173.372 101.473 173.792 101.249 174.305C101.025 174.818 100.913 175.36 100.913 175.929C100.913 176.498 101.025 177.044 101.249 177.567C101.473 178.08 101.804 178.5 102.243 178.827C102.691 179.154 103.241 179.317 103.895 179.317ZM110.644 181.123V170.763H114.564C115.404 170.763 116.142 170.912 116.776 171.211C117.42 171.5 117.952 171.892 118.372 172.387C118.792 172.882 119.11 173.437 119.324 174.053C119.539 174.669 119.646 175.299 119.646 175.943C119.646 176.587 119.539 177.217 119.324 177.833C119.11 178.449 118.792 179.004 118.372 179.499C117.952 179.994 117.42 180.39 116.776 180.689C116.142 180.978 115.404 181.123 114.564 181.123H110.644ZM114.466 172.653H112.8V179.205H114.466C115.148 179.205 115.708 179.046 116.146 178.729C116.594 178.412 116.926 178.001 117.14 177.497C117.364 176.993 117.476 176.47 117.476 175.929C117.476 175.388 117.364 174.87 117.14 174.375C116.926 173.871 116.594 173.46 116.146 173.143C115.708 172.816 115.148 172.653 114.466 172.653ZM121.158 181.123V170.763H124.07L126.436 176.097L128.872 170.763H131.686V181.123H129.558V174.067L127.43 178.701H125.428L123.286 174.039V181.123H121.158ZM133.054 181.123L136.582 170.763H139.452L142.98 181.123H140.712L140.054 179.093H135.994L135.322 181.123H133.054ZM136.596 177.217H139.452L138.024 172.891L136.596 177.217ZM145.696 181.123V172.639H142.518V170.763H151.03V172.639H147.852V181.123H145.696ZM152.521 181.123V170.763H159.661V172.639H154.677V174.963H159.017V176.769H154.677V179.247H159.731V181.123H152.521Z" fill="white"/>
<path d="M289.388 180.484C288.698 180.484 288.082 180.344 287.54 180.064C287.008 179.784 286.556 179.402 286.182 178.916C285.809 178.422 285.524 177.852 285.328 177.208C285.142 176.564 285.048 175.883 285.048 175.164C285.048 174.436 285.142 173.75 285.328 173.106C285.524 172.462 285.809 171.898 286.182 171.412C286.556 170.918 287.008 170.535 287.54 170.264C288.082 169.984 288.698 169.844 289.388 169.844C290.079 169.844 290.69 169.984 291.222 170.264C291.764 170.535 292.221 170.918 292.594 171.412C292.968 171.898 293.248 172.462 293.434 173.106C293.63 173.75 293.728 174.436 293.728 175.164C293.728 175.883 293.63 176.564 293.434 177.208C293.248 177.852 292.968 178.422 292.594 178.916C292.221 179.402 291.764 179.784 291.222 180.064C290.69 180.344 290.079 180.484 289.388 180.484ZM289.388 178.566C290.004 178.566 290.508 178.282 290.9 177.712C291.302 177.143 291.502 176.294 291.502 175.164C291.502 174.035 291.302 173.186 290.9 172.616C290.508 172.047 290.004 171.762 289.388 171.762C288.772 171.762 288.264 172.047 287.862 172.616C287.47 173.186 287.274 174.035 287.274 175.164C287.274 176.294 287.47 177.143 287.862 177.712C288.264 178.282 288.772 178.566 289.388 178.566ZM299.023 169.844C299.742 169.844 300.367 169.975 300.899 170.236C301.431 170.488 301.87 170.838 302.215 171.286C302.56 171.725 302.817 172.229 302.985 172.798C303.162 173.358 303.251 173.946 303.251 174.562C303.251 175.244 303.144 175.934 302.929 176.634C302.714 177.325 302.383 177.964 301.935 178.552C301.487 179.131 300.904 179.598 300.185 179.952C299.476 180.307 298.622 180.484 297.623 180.484C297.212 180.484 296.858 180.456 296.559 180.4C296.26 180.354 296.111 180.33 296.111 180.33V178.412C296.111 178.412 296.186 178.426 296.335 178.454C296.494 178.473 296.69 178.496 296.923 178.524C297.156 178.552 297.39 178.566 297.623 178.566C298.342 178.566 298.944 178.422 299.429 178.132C299.914 177.843 300.283 177.474 300.535 177.026C300.796 176.578 300.95 176.107 300.997 175.612C300.904 175.771 300.759 175.948 300.563 176.144C300.367 176.331 300.101 176.494 299.765 176.634C299.438 176.774 299.018 176.844 298.505 176.844C297.768 176.844 297.147 176.686 296.643 176.368C296.139 176.042 295.761 175.622 295.509 175.108C295.257 174.595 295.131 174.058 295.131 173.498C295.131 173.05 295.21 172.612 295.369 172.182C295.537 171.744 295.78 171.352 296.097 171.006C296.424 170.652 296.83 170.372 297.315 170.166C297.8 169.952 298.37 169.844 299.023 169.844ZM299.023 171.622C298.5 171.622 298.071 171.79 297.735 172.126C297.399 172.462 297.231 172.892 297.231 173.414C297.231 173.946 297.399 174.38 297.735 174.716C298.071 175.043 298.5 175.206 299.023 175.206C299.536 175.206 299.961 175.043 300.297 174.716C300.633 174.38 300.801 173.946 300.801 173.414C300.801 172.892 300.633 172.462 300.297 172.126C299.961 171.79 299.536 171.622 299.023 171.622ZM304.57 182.878L309.442 168.738H311.36L306.488 182.878H304.57ZM312.207 180.344V178.86L313.999 177.334C314.745 176.709 315.385 176.177 315.917 175.738C316.449 175.3 316.855 174.889 317.135 174.506C317.415 174.124 317.555 173.713 317.555 173.274C317.555 172.938 317.475 172.658 317.317 172.434C317.158 172.201 316.953 172.028 316.701 171.916C316.458 171.795 316.201 171.734 315.931 171.734C315.604 171.734 315.329 171.795 315.105 171.916C314.89 172.038 314.717 172.196 314.587 172.392C314.465 172.579 314.377 172.775 314.321 172.98C314.265 173.186 314.237 173.363 314.237 173.512H312.165C312.165 173.12 312.239 172.714 312.389 172.294C312.538 171.865 312.767 171.468 313.075 171.104C313.383 170.731 313.779 170.428 314.265 170.194C314.75 169.961 315.329 169.844 316.001 169.844C316.682 169.844 317.303 169.98 317.863 170.25C318.423 170.512 318.871 170.89 319.207 171.384C319.552 171.879 319.725 172.462 319.725 173.134C319.725 173.769 319.566 174.348 319.249 174.87C318.941 175.384 318.507 175.888 317.947 176.382C317.387 176.868 316.743 177.395 316.015 177.964L315.427 178.454H319.865V180.344H312.207ZM325.353 180.484C324.644 180.484 323.991 180.368 323.393 180.134C322.805 179.892 322.329 179.551 321.965 179.112C321.611 178.664 321.433 178.128 321.433 177.502C321.433 177.017 321.527 176.611 321.713 176.284C321.9 175.958 322.115 175.701 322.357 175.514C322.6 175.318 322.815 175.183 323.001 175.108C323.197 175.024 323.295 174.982 323.295 174.982V174.898C323.295 174.898 323.211 174.861 323.043 174.786C322.885 174.712 322.698 174.59 322.483 174.422C322.278 174.254 322.096 174.03 321.937 173.75C321.779 173.461 321.699 173.111 321.699 172.7C321.699 172.122 321.858 171.622 322.175 171.202C322.502 170.773 322.941 170.442 323.491 170.208C324.051 169.966 324.672 169.844 325.353 169.844C326.044 169.844 326.665 169.966 327.215 170.208C327.775 170.442 328.214 170.773 328.531 171.202C328.858 171.622 329.021 172.117 329.021 172.686C329.021 173.106 328.937 173.461 328.769 173.75C328.611 174.03 328.424 174.254 328.209 174.422C328.004 174.59 327.817 174.712 327.649 174.786C327.491 174.861 327.411 174.898 327.411 174.898V174.982C327.421 174.982 327.519 175.024 327.705 175.108C327.892 175.183 328.107 175.318 328.349 175.514C328.592 175.701 328.807 175.958 328.993 176.284C329.18 176.611 329.273 177.017 329.273 177.502C329.273 178.128 329.096 178.664 328.741 179.112C328.387 179.551 327.911 179.892 327.313 180.134C326.725 180.368 326.072 180.484 325.353 180.484ZM325.353 174.184C325.82 174.184 326.207 174.058 326.515 173.806C326.833 173.545 326.991 173.223 326.991 172.84C326.991 172.448 326.837 172.126 326.529 171.874C326.221 171.622 325.829 171.496 325.353 171.496C324.887 171.496 324.499 171.622 324.191 171.874C323.883 172.126 323.729 172.448 323.729 172.84C323.729 173.232 323.883 173.554 324.191 173.806C324.499 174.058 324.887 174.184 325.353 174.184ZM325.353 178.804C325.764 178.804 326.105 178.73 326.375 178.58C326.655 178.422 326.861 178.226 326.991 177.992C327.131 177.759 327.201 177.512 327.201 177.25C327.201 177.008 327.131 176.774 326.991 176.55C326.861 176.317 326.655 176.126 326.375 175.976C326.105 175.827 325.764 175.752 325.353 175.752C324.943 175.752 324.602 175.827 324.331 175.976C324.061 176.126 323.855 176.317 323.715 176.55C323.575 176.774 323.505 177.008 323.505 177.25C323.505 177.512 323.575 177.759 323.715 177.992C323.855 178.226 324.061 178.422 324.331 178.58C324.611 178.73 324.952 178.804 325.353 178.804Z" fill="white"/>
<path d="M335.876 109.107C339.637 105.431 341.749 100.453 341.749 95.2627C341.749 90.0727 339.637 85.0943 335.876 81.418C335.765 81.309 335.633 81.2223 335.487 81.1629C335.341 81.1036 335.185 81.0728 335.027 81.0723C334.87 81.0717 334.713 81.1015 334.567 81.1598C334.421 81.2182 334.288 81.3039 334.176 81.4123C334.064 81.5206 333.975 81.6494 333.914 81.7912C333.854 81.933 333.822 82.0851 333.821 82.2389C333.821 82.3926 333.851 82.5449 333.911 82.6872C333.971 82.8294 334.059 82.9588 334.17 83.0679C337.476 86.3098 339.331 90.6936 339.331 95.2627C339.331 99.8318 337.476 104.216 334.17 107.458C334.054 107.565 333.961 107.695 333.898 107.839C333.834 107.983 333.802 108.137 333.802 108.294C333.802 108.45 333.834 108.605 333.898 108.749C333.961 108.893 334.054 109.023 334.17 109.13C334.281 109.242 334.413 109.331 334.56 109.392C334.706 109.452 334.864 109.483 335.023 109.483C335.182 109.483 335.34 109.452 335.487 109.392C335.633 109.331 335.766 109.242 335.876 109.13V109.107Z" fill="white"/>
<path d="M331.968 85.1908C331.858 85.0773 331.724 84.987 331.577 84.9252C331.429 84.8635 331.27 84.8317 331.109 84.8317C330.949 84.8317 330.79 84.8635 330.642 84.9252C330.495 84.987 330.361 85.0773 330.251 85.1908C330.134 85.2986 330.041 85.4283 329.978 85.5721C329.915 85.7159 329.882 85.8708 329.882 86.0273C329.882 86.1838 329.915 86.3386 329.978 86.4824C330.041 86.6262 330.134 86.756 330.251 86.8637C332.531 89.0877 333.812 92.1025 333.812 95.2459C333.812 98.3892 332.531 101.404 330.251 103.628C330.07 103.788 329.944 103.998 329.89 104.23C329.837 104.462 329.858 104.705 329.951 104.924C330.045 105.144 330.206 105.33 330.412 105.458C330.618 105.585 330.86 105.647 331.103 105.636C331.264 105.638 331.424 105.609 331.572 105.549C331.721 105.49 331.856 105.401 331.968 105.289C334.698 102.621 336.231 99.0073 336.231 95.2401C336.231 91.4729 334.698 87.8593 331.968 85.1908Z" fill="white"/>
<path d="M328.213 88.8366C327.987 88.6163 327.68 88.4926 327.36 88.4926C327.041 88.4926 326.734 88.6163 326.508 88.8366C326.281 89.057 326.154 89.3558 326.154 89.6674C326.154 89.9789 326.281 90.2778 326.508 90.4981C327.792 91.7544 328.513 93.4554 328.513 95.2285C328.513 97.0017 327.792 98.7026 326.508 99.959C326.281 100.179 326.154 100.478 326.154 100.79C326.154 101.101 326.281 101.4 326.508 101.62C326.734 101.841 327.041 101.964 327.36 101.964C327.68 101.964 327.987 101.841 328.213 101.62C329.952 99.9244 330.929 97.6254 330.929 95.2285C330.929 92.8316 329.952 90.5327 328.213 88.8366Z" fill="white"/>
<path d="M324.955 95.2398C324.955 94.7834 324.816 94.3373 324.555 93.9578C324.295 93.5783 323.925 93.2826 323.492 93.1079C323.059 92.9332 322.583 92.8876 322.124 92.9766C321.664 93.0656 321.242 93.2854 320.911 93.6081C320.579 93.9308 320.354 94.342 320.262 94.7896C320.171 95.2372 320.218 95.7012 320.397 96.1228C320.576 96.5445 320.88 96.9049 321.27 97.1584C321.659 97.412 322.117 97.5473 322.586 97.5473C323.214 97.5473 323.817 97.3042 324.261 96.8715C324.705 96.4387 324.955 95.8518 324.955 95.2398Z" fill="white"/>
<path d="M62.4269 85.537C60.5021 85.54 58.6571 86.2861 57.2961 87.6118C55.9351 88.9374 55.1691 90.7345 55.166 92.6093V106.927C55.166 108.803 55.931 110.602 57.2927 111.928C58.6544 113.254 60.5012 113.999 62.4269 113.999C64.3526 113.999 66.1994 113.254 67.5611 111.928C68.9228 110.602 69.6878 108.803 69.6878 106.927V92.6093C69.6846 90.7345 68.9187 88.9374 67.5577 87.6118C66.1967 86.2861 64.3516 85.54 62.4269 85.537Z" fill="url(#paint3_linear_259_2203)"/>
<path d="M62.4267 84.5448C64.444 84.5492 66.3905 85.2699 67.9015 86.5718C69.4125 87.8738 70.3844 89.6676 70.6352 91.6174H78.4646V81.3027H46.377V91.6174H54.2064C54.4574 89.6657 55.431 87.8702 56.9445 86.568C58.458 85.2658 60.4073 84.5464 62.4267 84.5448Z" fill="url(#paint4_linear_259_2203)"/>
<path d="M79.4834 91.6173H90.3096V86.5292C90.3096 85.8458 90.1714 85.1692 89.9029 84.5379C89.6345 83.9066 89.241 83.3329 88.7449 82.8498C88.2489 82.3666 87.66 81.9833 87.0119 81.7218C86.3637 81.4603 85.6691 81.3257 84.9676 81.3257H79.4834V91.6173Z" fill="url(#paint5_linear_259_2203)"/>
<path d="M62.4267 115.003C60.4055 115.001 58.4547 114.28 56.9409 112.976C55.4271 111.671 54.4547 109.873 54.2064 107.919H46.377V118.245H78.4646V107.919H70.6352C70.3871 109.871 69.4164 111.668 67.9051 112.972C66.3938 114.276 64.4458 114.998 62.4267 115.003Z" fill="url(#paint6_linear_259_2203)"/>
<path d="M90.3092 92.6093H70.7061V106.928H90.3092V92.6093Z" fill="url(#paint7_linear_259_2203)"/>
<path d="M45.3583 107.919H34.5439V113.065C34.5439 114.445 35.1068 115.768 36.1086 116.744C37.1104 117.72 38.4692 118.268 39.886 118.268H45.3583V107.919Z" fill="url(#paint8_linear_259_2203)"/>
<path d="M79.4834 107.919V118.245H84.9676C86.3802 118.245 87.7354 117.7 88.7366 116.729C89.7377 115.759 90.3033 114.441 90.3096 113.065V107.919H79.4834Z" fill="url(#paint9_linear_259_2203)"/>
<path d="M34.5439 106.928H54.1471V92.6093H34.5439V106.928Z" fill="url(#paint10_linear_259_2203)"/>
<path d="M45.3583 91.6174V81.3027H39.886C39.1825 81.3027 38.4859 81.4381 37.8362 81.701C37.1866 81.964 36.5966 82.3493 36.1002 82.835C35.6039 83.3206 35.2109 83.8969 34.9438 84.5309C34.6768 85.1649 34.5409 85.844 34.544 86.5293V91.6405L45.3583 91.6174Z" fill="url(#paint11_linear_259_2203)"/>
<path d="M40.287 62.3661C39.575 62.3661 38.951 62.2381 38.415 61.9821C37.887 61.7181 37.443 61.3701 37.083 60.9381C36.731 60.4981 36.463 60.0101 36.279 59.4741C36.103 58.9301 36.015 58.3741 36.015 57.8061C36.015 57.2381 36.103 56.6821 36.279 56.1381C36.463 55.5941 36.731 55.1061 37.083 54.6741C37.443 54.2341 37.887 53.8861 38.415 53.6301C38.951 53.3741 39.575 53.2461 40.287 53.2461C40.871 53.2461 41.371 53.3221 41.787 53.4741C42.211 53.6261 42.563 53.8221 42.843 54.0621C43.131 54.2941 43.359 54.5421 43.527 54.8061C43.703 55.0701 43.831 55.3221 43.911 55.5621C43.999 55.8021 44.059 55.9981 44.091 56.1501C44.123 56.2941 44.139 56.3661 44.139 56.3661H42.735C42.735 56.3661 42.719 56.3061 42.687 56.1861C42.663 56.0581 42.603 55.9021 42.507 55.7181C42.419 55.5341 42.283 55.3541 42.099 55.1781C41.923 54.9941 41.687 54.8421 41.391 54.7221C41.103 54.5941 40.739 54.5301 40.299 54.5301C39.827 54.5301 39.411 54.6221 39.051 54.8061C38.699 54.9901 38.403 55.2381 38.163 55.5501C37.923 55.8621 37.743 56.2141 37.623 56.6061C37.511 56.9981 37.455 57.3981 37.455 57.8061C37.455 58.2141 37.511 58.6141 37.623 59.0061C37.743 59.3901 37.923 59.7421 38.163 60.0621C38.403 60.3741 38.699 60.6221 39.051 60.8061C39.411 60.9901 39.827 61.0821 40.299 61.0821C40.739 61.0821 41.103 61.0221 41.391 60.9021C41.687 60.7741 41.923 60.6181 42.099 60.4341C42.283 60.2501 42.419 60.0661 42.507 59.8821C42.603 59.6981 42.663 59.5461 42.687 59.4261C42.719 59.2981 42.735 59.2341 42.735 59.2341H44.139C44.139 59.2341 44.123 59.3101 44.091 59.4621C44.059 59.6141 43.999 59.8101 43.911 60.0501C43.831 60.2821 43.703 60.5341 43.527 60.8061C43.359 61.0701 43.131 61.3221 42.843 61.5621C42.563 61.7941 42.211 61.9861 41.787 62.1381C41.371 62.2901 40.871 62.3661 40.287 62.3661ZM45.6552 62.2461V53.3661H48.9552C49.5872 53.3661 50.1192 53.4901 50.5512 53.7381C50.9912 53.9781 51.3232 54.2981 51.5472 54.6981C51.7712 55.0901 51.8832 55.5181 51.8832 55.9821C51.8832 56.5421 51.7232 57.0501 51.4032 57.5061C51.0912 57.9621 50.6312 58.2821 50.0232 58.4661L52.1592 62.2461H50.5872L48.5712 58.6221H47.0592V62.2461H45.6552ZM48.9312 54.5901H47.0592V57.4461H48.9312C49.4352 57.4461 49.8152 57.3021 50.0712 57.0141C50.3272 56.7181 50.4552 56.3861 50.4552 56.0181C50.4552 55.6501 50.3272 55.3221 50.0712 55.0341C49.8152 54.7381 49.4352 54.5901 48.9312 54.5901ZM53.8466 62.2461V53.3661H59.6426V54.5901H55.2506V57.1221H59.0906V58.3341H55.2506V61.0221H59.7026V62.2461H53.8466ZM61.37 62.2461V53.3661H64.406C65.118 53.3661 65.742 53.4941 66.278 53.7501C66.814 53.9981 67.258 54.3341 67.61 54.7581C67.97 55.1821 68.238 55.6581 68.414 56.1861C68.598 56.7141 68.69 57.2541 68.69 57.8061C68.69 58.3581 68.598 58.8981 68.414 59.4261C68.238 59.9541 67.97 60.4301 67.61 60.8541C67.258 61.2781 66.814 61.6181 66.278 61.8741C65.742 62.1221 65.118 62.2461 64.406 62.2461H61.37ZM64.346 54.5901H62.774V61.0101H64.346C64.842 61.0101 65.274 60.9221 65.642 60.7461C66.01 60.5621 66.314 60.3181 66.554 60.0141C66.794 59.7021 66.974 59.3581 67.094 58.9821C67.222 58.5981 67.286 58.2061 67.286 57.8061C67.286 57.4061 67.222 57.0141 67.094 56.6301C66.974 56.2461 66.794 55.9021 66.554 55.5981C66.314 55.2941 66.01 55.0501 65.642 54.8661C65.274 54.6821 64.842 54.5901 64.346 54.5901ZM70.2059 62.2461V53.3661H71.6099V62.2461H70.2059ZM75.7926 62.2461V54.5901H73.0326V53.3661H79.9446V54.5901H77.1846V62.2461H75.7926ZM88.0995 62.3661C87.3875 62.3661 86.7635 62.2381 86.2275 61.9821C85.6995 61.7181 85.2555 61.3701 84.8955 60.9381C84.5435 60.4981 84.2755 60.0101 84.0915 59.4741C83.9155 58.9301 83.8275 58.3741 83.8275 57.8061C83.8275 57.2381 83.9155 56.6821 84.0915 56.1381C84.2755 55.5941 84.5435 55.1061 84.8955 54.6741C85.2555 54.2341 85.6995 53.8861 86.2275 53.6301C86.7635 53.3741 87.3875 53.2461 88.0995 53.2461C88.6835 53.2461 89.1835 53.3221 89.5995 53.4741C90.0235 53.6261 90.3755 53.8221 90.6555 54.0621C90.9435 54.2941 91.1715 54.5421 91.3395 54.8061C91.5155 55.0701 91.6435 55.3221 91.7235 55.5621C91.8115 55.8021 91.8715 55.9981 91.9035 56.1501C91.9355 56.2941 91.9515 56.3661 91.9515 56.3661H90.5475C90.5475 56.3661 90.5315 56.3061 90.4995 56.1861C90.4755 56.0581 90.4155 55.9021 90.3195 55.7181C90.2315 55.5341 90.0955 55.3541 89.9115 55.1781C89.7355 54.9941 89.4995 54.8421 89.2035 54.7221C88.9155 54.5941 88.5515 54.5301 88.1115 54.5301C87.6395 54.5301 87.2235 54.6221 86.8635 54.8061C86.5115 54.9901 86.2155 55.2381 85.9755 55.5501C85.7355 55.8621 85.5555 56.2141 85.4355 56.6061C85.3235 56.9981 85.2675 57.3981 85.2675 57.8061C85.2675 58.2141 85.3235 58.6141 85.4355 59.0061C85.5555 59.3901 85.7355 59.7421 85.9755 60.0621C86.2155 60.3741 86.5115 60.6221 86.8635 60.8061C87.2235 60.9901 87.6395 61.0821 88.1115 61.0821C88.5515 61.0821 88.9155 61.0221 89.2035 60.9021C89.4995 60.7741 89.7355 60.6181 89.9115 60.4341C90.0955 60.2501 90.2315 60.0661 90.3195 59.8821C90.4155 59.6981 90.4755 59.5461 90.4995 59.4261C90.5315 59.2981 90.5475 59.2341 90.5475 59.2341H91.9515C91.9515 59.2341 91.9355 59.3101 91.9035 59.4621C91.8715 59.6141 91.8115 59.8101 91.7235 60.0501C91.6435 60.2821 91.5155 60.5341 91.3395 60.8061C91.1715 61.0701 90.9435 61.3221 90.6555 61.5621C90.3755 61.7941 90.0235 61.9861 89.5995 62.1381C89.1835 62.2901 88.6835 62.3661 88.0995 62.3661ZM92.5552 62.2461L95.6512 53.3661H97.4512L100.559 62.2461H99.0832L98.3992 60.2541H94.7152L94.0312 62.2461H92.5552ZM95.1352 59.0061H97.9792L96.5632 54.8661L95.1352 59.0061ZM101.952 62.2461V53.3661H105.252C105.884 53.3661 106.416 53.4901 106.848 53.7381C107.288 53.9781 107.62 54.2981 107.844 54.6981C108.068 55.0901 108.18 55.5181 108.18 55.9821C108.18 56.5421 108.02 57.0501 107.7 57.5061C107.388 57.9621 106.928 58.2821 106.32 58.4661L108.456 62.2461H106.884L104.868 58.6221H103.356V62.2461H101.952ZM105.228 54.5901H103.356V57.4461H105.228C105.732 57.4461 106.112 57.3021 106.368 57.0141C106.624 56.7181 106.752 56.3861 106.752 56.0181C106.752 55.6501 106.624 55.3221 106.368 55.0341C106.112 54.7381 105.732 54.5901 105.228 54.5901ZM110.143 62.2461V53.3661H113.179C113.891 53.3661 114.515 53.4941 115.051 53.7501C115.587 53.9981 116.031 54.3341 116.383 54.7581C116.743 55.1821 117.011 55.6581 117.187 56.1861C117.371 56.7141 117.463 57.2541 117.463 57.8061C117.463 58.3581 117.371 58.8981 117.187 59.4261C117.011 59.9541 116.743 60.4301 116.383 60.8541C116.031 61.2781 115.587 61.6181 115.051 61.8741C114.515 62.1221 113.891 62.2461 113.179 62.2461H110.143ZM113.119 54.5901H111.547V61.0101H113.119C113.615 61.0101 114.047 60.9221 114.415 60.7461C114.783 60.5621 115.087 60.3181 115.327 60.0141C115.567 59.7021 115.747 59.3581 115.867 58.9821C115.995 58.5981 116.059 58.2061 116.059 57.8061C116.059 57.4061 115.995 57.0141 115.867 56.6301C115.747 56.2461 115.567 55.9021 115.327 55.5981C115.087 55.2941 114.783 55.0501 114.415 54.8661C114.047 54.6821 113.615 54.5901 113.119 54.5901Z" fill="white"/>
</g>
</g>
<defs>
<filter id="filter0_d_259_2203" x="0" y="0" width="376" height="221" filterUnits="userSpaceOnUse" color-interpolation-filters="sRGB">
<feFlood flood-opacity="0" result="BackgroundImageFix"/>
<feColorMatrix in="SourceAlpha" type="matrix" values="0 0 0 0 0 0 0 0 0 0 0 0 0 0 0 0 0 0 127 0" result="hardAlpha"/>
<feOffset dy="4"/>
<feGaussianBlur stdDeviation="2"/>
<feComposite in2="hardAlpha" operator="out"/>
<feColorMatrix type="matrix" values="0 0 0 0 0 0 0 0 0 0 0 0 0 0 0 0 0 0 0.25 0"/>
<feBlend mode="normal" in2="BackgroundImageFix" result="effect1_dropShadow_259_2203"/>
<feBlend mode="normal" in="SourceGraphic" in2="effect1_dropShadow_259_2203" result="shape"/>
</filter>
<filter id="filter1_d_259_2203" x="0" y="0.00012207" width="376" height="221" filterUnits="userSpaceOnUse" color-interpolation-filters="sRGB">
<feFlood flood-opacity="0" result="BackgroundImageFix"/>
<feColorMatrix in="SourceAlpha" type="matrix" values="0 0 0 0 0 0 0 0 0 0 0 0 0 0 0 0 0 0 127 0" result="hardAlpha"/>
<feOffset dy="4"/>
<feGaussianBlur stdDeviation="2"/>
<feComposite in2="hardAlpha" operator="out"/>
<feColorMatrix type="matrix" values="0 0 0 0 0 0 0 0 0 0 0 0 0 0 0 0 0 0 0.25 0"/>
<feBlend mode="normal" in2="BackgroundImageFix" result="effect1_dropShadow_259_2203"/>
<feBlend mode="normal" in="SourceGraphic" in2="effect1_dropShadow_259_2203" result="shape"/>
</filter>
<linearGradient id="paint0_linear_259_2203" x1="827" y1="-305.5" x2="-2.64964" y2="270.394" gradientUnits="userSpaceOnUse">
<stop stop-color="#F13005"/>
<stop offset="0.5" stop-color="#F13005"/>
<stop offset="1" stop-color="#07280F"/>
<stop offset="1" stop-color="#A33922"/>
</linearGradient>
<linearGradient id="paint1_linear_259_2203" x1="168.96" y1="156.56" x2="323.533" y2="-76.0107" gradientUnits="userSpaceOnUse">
<stop stop-color="white" stop-opacity="0"/>
<stop offset="1" stop-color="#F7EBEB"/>
</linearGradient>
<linearGradient id="paint2_linear_259_2203" x1="114.295" y1="145.127" x2="254.132" y2="-65.2776" gradientUnits="userSpaceOnUse">
<stop stop-color="white" stop-opacity="0"/>
<stop offset="1" stop-color="#F7EBEB"/>
</linearGradient>
<linearGradient id="paint3_linear_259_2203" x1="35.5984" y1="116.203" x2="94.2912" y2="78.3187" gradientUnits="userSpaceOnUse">
<stop stop-color="#FADF14"/>
<stop offset="0.5" stop-color="#FFB42E"/>
<stop offset="1" stop-color="#E66712"/>
</linearGradient>
<linearGradient id="paint4_linear_259_2203" x1="29.4389" y1="106.663" x2="88.1331" y2="68.779" gradientUnits="userSpaceOnUse">
<stop stop-color="#FADF14"/>
<stop offset="0.5" stop-color="#FFB42E"/>
<stop offset="1" stop-color="#E66712"/>
</linearGradient>
<linearGradient id="paint5_linear_259_2203" x1="35.8115" y1="116.527" x2="94.4939" y2="78.6438" gradientUnits="userSpaceOnUse">
<stop stop-color="#FADF14"/>
<stop offset="0.5" stop-color="#FFB42E"/>
<stop offset="1" stop-color="#E66712"/>
</linearGradient>
<linearGradient id="paint6_linear_259_2203" x1="41.7575" y1="125.745" x2="100.451" y2="87.8495" gradientUnits="userSpaceOnUse">
<stop stop-color="#FADF14"/>
<stop offset="0.5" stop-color="#FFB42E"/>
<stop offset="1" stop-color="#E66712"/>
</linearGradient>
<linearGradient id="paint7_linear_259_2203" x1="40.7268" y1="124.142" x2="99.4206" y2="86.2465" gradientUnits="userSpaceOnUse">
<stop stop-color="#FADF14"/>
<stop offset="0.5" stop-color="#FFB42E"/>
<stop offset="1" stop-color="#E66712"/>
</linearGradient>
<linearGradient id="paint8_linear_259_2203" x1="35.3968" y1="115.869" x2="94.0791" y2="77.9851" gradientUnits="userSpaceOnUse">
<stop stop-color="#FADF14"/>
<stop offset="0.5" stop-color="#FFB42E"/>
<stop offset="1" stop-color="#E66712"/>
</linearGradient>
<linearGradient id="paint9_linear_259_2203" x1="47.5971" y1="134.767" x2="106.279" y2="96.8838" gradientUnits="userSpaceOnUse">
<stop stop-color="#FADF14"/>
<stop offset="0.5" stop-color="#FFB42E"/>
<stop offset="1" stop-color="#E66712"/>
</linearGradient>
<linearGradient id="paint10_linear_259_2203" x1="30.4812" y1="108.266" x2="89.1631" y2="70.3708" gradientUnits="userSpaceOnUse">
<stop stop-color="#FADF14"/>
<stop offset="0.5" stop-color="#FFB42E"/>
<stop offset="1" stop-color="#E66712"/>
</linearGradient>
<linearGradient id="paint11_linear_259_2203" x1="23.6112" y1="97.6285" x2="82.3055" y2="59.745" gradientUnits="userSpaceOnUse">
<stop stop-color="#FADF14"/>
<stop offset="0.5" stop-color="#FFB42E"/>
<stop offset="1" stop-color="#E66712"/>
</linearGradient>
</defs>
</svg>
