<svg width="368" height="213" viewBox="0 0 368 213" fill="none" xmlns="http://www.w3.org/2000/svg">
<path d="M368 17.5777V194.995C367.997 199.652 366.089 204.118 362.694 207.41C359.3 210.701 354.698 212.551 349.9 212.551H18.1474C15.7675 212.557 13.4097 212.107 11.209 211.228C9.0083 210.348 7.00791 209.056 5.3223 207.426C3.6367 205.795 2.29898 203.858 1.38571 201.725C0.472438 199.592 0.0015514 197.305 2.61304e-10 194.995L2.61304e-10 17.5777C-1.27939e-05 15.2675 0.469807 12.9799 1.38252 10.8463C2.29524 8.71261 3.6329 6.77477 5.31882 5.14386C7.00474 3.51295 9.00575 2.22104 11.2071 1.34219C13.4085 0.46335 15.767 0.0148587 18.1474 0.0224332H349.9C352.276 0.0209209 354.63 0.473886 356.826 1.35544C359.022 2.237 361.017 3.52988 362.698 5.16018C364.379 6.79049 365.712 8.72628 366.622 10.8569C367.532 12.9876 368 15.2714 368 17.5777Z" fill="url(#paint0_linear_259_2362)"/>
<g style="mix-blend-mode:soft-light" opacity="0.5">
<path d="M316.006 0.00012207L137.895 213H84.0605L262.171 0.00012207H316.006Z" fill="url(#paint1_linear_259_2362)"/>
<path d="M241.442 0.00012207L63.3199 213H33.2695L211.38 0.00012207H241.442Z" fill="url(#paint2_linear_259_2362)"/>
</g>
<path d="M32.7396 39.8462V26.2228H38.686C39.5574 26.2228 40.3 26.3762 40.9136 26.683C41.5273 26.9899 41.9937 27.401 42.3128 27.9165C42.6442 28.432 42.8099 28.9966 42.8099 29.6102C42.8099 30.2362 42.6933 30.7517 42.4601 31.1567C42.2391 31.5617 41.9691 31.8808 41.65 32.114C41.3432 32.3349 41.0609 32.4883 40.8032 32.5742V32.7031C41.1223 32.789 41.4782 32.9547 41.8709 33.2002C42.276 33.4456 42.6258 33.7954 42.9203 34.2496C43.2149 34.6914 43.3622 35.2682 43.3622 35.9801C43.3622 36.6183 43.2087 37.2381 42.9019 37.8395C42.5951 38.4286 42.1103 38.9134 41.4475 39.2939C40.7848 39.6621 39.9072 39.8462 38.8149 39.8462H32.7396ZM38.3546 28.3399H35.2433V31.8931H38.3546C39.0665 31.8931 39.582 31.7151 39.9011 31.3592C40.2202 31.0033 40.3797 30.586 40.3797 30.1073C40.3797 29.6409 40.2202 29.2298 39.9011 28.8738C39.582 28.5179 39.0665 28.3399 38.3546 28.3399ZM38.5387 33.8077H35.2433V37.729H38.5387C39.3488 37.729 39.9379 37.5327 40.3061 37.1399C40.6743 36.7472 40.8584 36.2869 40.8584 35.7592C40.8584 35.2437 40.6743 34.7896 40.3061 34.3968C39.9379 34.0041 39.3488 33.8077 38.5387 33.8077ZM44.8052 39.8462L49.4997 26.2228H52.7583L57.4713 39.8462H54.857L53.8813 36.9742H48.3951L47.4194 39.8462H44.8052ZM49.1131 34.8019H53.1633L51.1382 28.7818L49.1131 34.8019ZM59.4377 39.8462V26.2228H61.7205L67.9799 35.4646V26.2228H70.4653V39.8462H68.1824L61.923 30.7701V39.8462H59.4377ZM73.1193 39.8462V26.2228H75.6231V32.1324L80.8147 26.2412H83.9444L78.0348 32.7768L84.1837 39.8462H80.9436L75.6231 33.6236V39.8462H73.1193ZM90.3068 39.8462V26.2228H92.5896L98.849 35.4646V26.2228H101.334V39.8462H99.0515L92.7921 30.7701V39.8462H90.3068ZM103.307 39.8462L108.002 26.2228H111.26L115.973 39.8462H113.359L112.383 36.9742H106.897L105.921 39.8462H103.307ZM107.615 34.8019H111.665L109.64 28.7818L107.615 34.8019ZM117.94 39.8462V26.2228H121.272L124.678 33.6052L128.157 26.2228H131.434V39.8462H128.967V29.9968L125.838 36.5508H123.518L120.407 29.96V39.8462H117.94ZM134.084 39.8462V26.2228H143.216V28.3952H136.588V31.8563H142.387V33.9734H136.588V37.6738H143.308V39.8462H134.084Z" fill="white"/>
<path d="M34.3488 152.534C33.4608 152.534 32.6688 152.354 31.9728 151.994C31.2888 151.634 30.7068 151.142 30.2268 150.518C29.7468 149.882 29.3808 149.15 29.1288 148.322C28.8888 147.494 28.7688 146.618 28.7688 145.694C28.7688 144.758 28.8888 143.876 29.1288 143.048C29.3808 142.22 29.7468 141.494 30.2268 140.87C30.7068 140.234 31.2888 139.742 31.9728 139.394C32.6688 139.034 33.4608 138.854 34.3488 138.854C35.2368 138.854 36.0228 139.034 36.7068 139.394C37.4028 139.742 37.9908 140.234 38.4708 140.87C38.9508 141.494 39.3108 142.22 39.5508 143.048C39.8028 143.876 39.9288 144.758 39.9288 145.694C39.9288 146.618 39.8028 147.494 39.5508 148.322C39.3108 149.15 38.9508 149.882 38.4708 150.518C37.9908 151.142 37.4028 151.634 36.7068 151.994C36.0228 152.354 35.2368 152.534 34.3488 152.534ZM34.3488 150.068C35.1408 150.068 35.7888 149.702 36.2928 148.97C36.8088 148.238 37.0668 147.146 37.0668 145.694C37.0668 144.242 36.8088 143.15 36.2928 142.418C35.7888 141.686 35.1408 141.32 34.3488 141.32C33.5568 141.32 32.9028 141.686 32.3868 142.418C31.8828 143.15 31.6308 144.242 31.6308 145.694C31.6308 147.146 31.8828 148.238 32.3868 148.97C32.9028 149.702 33.5568 150.068 34.3488 150.068ZM47.3123 152.534C46.4243 152.534 45.6323 152.354 44.9363 151.994C44.2523 151.634 43.6703 151.142 43.1903 150.518C42.7103 149.882 42.3443 149.15 42.0923 148.322C41.8523 147.494 41.7323 146.618 41.7323 145.694C41.7323 144.758 41.8523 143.876 42.0923 143.048C42.3443 142.22 42.7103 141.494 43.1903 140.87C43.6703 140.234 44.2523 139.742 44.9363 139.394C45.6323 139.034 46.4243 138.854 47.3123 138.854C48.2003 138.854 48.9863 139.034 49.6703 139.394C50.3663 139.742 50.9543 140.234 51.4343 140.87C51.9143 141.494 52.2743 142.22 52.5143 143.048C52.7663 143.876 52.8923 144.758 52.8923 145.694C52.8923 146.618 52.7663 147.494 52.5143 148.322C52.2743 149.15 51.9143 149.882 51.4343 150.518C50.9543 151.142 50.3663 151.634 49.6703 151.994C48.9863 152.354 48.2003 152.534 47.3123 152.534ZM47.3123 150.068C48.1043 150.068 48.7523 149.702 49.2563 148.97C49.7723 148.238 50.0303 147.146 50.0303 145.694C50.0303 144.242 49.7723 143.15 49.2563 142.418C48.7523 141.686 48.1043 141.32 47.3123 141.32C46.5203 141.32 45.8663 141.686 45.3503 142.418C44.8463 143.15 44.5943 144.242 44.5943 145.694C44.5943 147.146 44.8463 148.238 45.3503 148.97C45.8663 149.702 46.5203 150.068 47.3123 150.068ZM60.2759 152.534C59.3879 152.534 58.5959 152.354 57.8999 151.994C57.2159 151.634 56.6339 151.142 56.1539 150.518C55.6739 149.882 55.3079 149.15 55.0559 148.322C54.8159 147.494 54.6959 146.618 54.6959 145.694C54.6959 144.758 54.8159 143.876 55.0559 143.048C55.3079 142.22 55.6739 141.494 56.1539 140.87C56.6339 140.234 57.2159 139.742 57.8999 139.394C58.5959 139.034 59.3879 138.854 60.2759 138.854C61.1639 138.854 61.9499 139.034 62.6339 139.394C63.3299 139.742 63.9179 140.234 64.3979 140.87C64.8779 141.494 65.2379 142.22 65.4779 143.048C65.7299 143.876 65.8559 144.758 65.8559 145.694C65.8559 146.618 65.7299 147.494 65.4779 148.322C65.2379 149.15 64.8779 149.882 64.3979 150.518C63.9179 151.142 63.3299 151.634 62.6339 151.994C61.9499 152.354 61.1639 152.534 60.2759 152.534ZM60.2759 150.068C61.0679 150.068 61.7159 149.702 62.2199 148.97C62.7359 148.238 62.9939 147.146 62.9939 145.694C62.9939 144.242 62.7359 143.15 62.2199 142.418C61.7159 141.686 61.0679 141.32 60.2759 141.32C59.4839 141.32 58.8299 141.686 58.3139 142.418C57.8099 143.15 57.5579 144.242 57.5579 145.694C57.5579 147.146 57.8099 148.238 58.3139 148.97C58.8299 149.702 59.4839 150.068 60.2759 150.068ZM73.2394 152.534C72.3514 152.534 71.5594 152.354 70.8634 151.994C70.1794 151.634 69.5974 151.142 69.1174 150.518C68.6374 149.882 68.2714 149.15 68.0194 148.322C67.7794 147.494 67.6594 146.618 67.6594 145.694C67.6594 144.758 67.7794 143.876 68.0194 143.048C68.2714 142.22 68.6374 141.494 69.1174 140.87C69.5974 140.234 70.1794 139.742 70.8634 139.394C71.5594 139.034 72.3514 138.854 73.2394 138.854C74.1274 138.854 74.9134 139.034 75.5974 139.394C76.2934 139.742 76.8814 140.234 77.3614 140.87C77.8414 141.494 78.2014 142.22 78.4414 143.048C78.6934 143.876 78.8194 144.758 78.8194 145.694C78.8194 146.618 78.6934 147.494 78.4414 148.322C78.2014 149.15 77.8414 149.882 77.3614 150.518C76.8814 151.142 76.2934 151.634 75.5974 151.994C74.9134 152.354 74.1274 152.534 73.2394 152.534ZM73.2394 150.068C74.0314 150.068 74.6794 149.702 75.1834 148.97C75.6994 148.238 75.9574 147.146 75.9574 145.694C75.9574 144.242 75.6994 143.15 75.1834 142.418C74.6794 141.686 74.0314 141.32 73.2394 141.32C72.4474 141.32 71.7934 141.686 71.2774 142.418C70.7734 143.15 70.5214 144.242 70.5214 145.694C70.5214 147.146 70.7734 148.238 71.2774 148.97C71.7934 149.702 72.4474 150.068 73.2394 150.068ZM99.7282 152.534C98.8402 152.534 98.0482 152.354 97.3522 151.994C96.6682 151.634 96.0862 151.142 95.6062 150.518C95.1262 149.882 94.7602 149.15 94.5082 148.322C94.2682 147.494 94.1482 146.618 94.1482 145.694C94.1482 144.758 94.2682 143.876 94.5082 143.048C94.7602 142.22 95.1262 141.494 95.6062 140.87C96.0862 140.234 96.6682 139.742 97.3522 139.394C98.0482 139.034 98.8402 138.854 99.7282 138.854C100.616 138.854 101.402 139.034 102.086 139.394C102.782 139.742 103.37 140.234 103.85 140.87C104.33 141.494 104.69 142.22 104.93 143.048C105.182 143.876 105.308 144.758 105.308 145.694C105.308 146.618 105.182 147.494 104.93 148.322C104.69 149.15 104.33 149.882 103.85 150.518C103.37 151.142 102.782 151.634 102.086 151.994C101.402 152.354 100.616 152.534 99.7282 152.534ZM99.7282 150.068C100.52 150.068 101.168 149.702 101.672 148.97C102.188 148.238 102.446 147.146 102.446 145.694C102.446 144.242 102.188 143.15 101.672 142.418C101.168 141.686 100.52 141.32 99.7282 141.32C98.9362 141.32 98.2822 141.686 97.7662 142.418C97.2622 143.15 97.0102 144.242 97.0102 145.694C97.0102 147.146 97.2622 148.238 97.7662 148.97C98.2822 149.702 98.9362 150.068 99.7282 150.068ZM112.692 152.534C111.804 152.534 111.012 152.354 110.316 151.994C109.632 151.634 109.05 151.142 108.57 150.518C108.09 149.882 107.724 149.15 107.472 148.322C107.232 147.494 107.112 146.618 107.112 145.694C107.112 144.758 107.232 143.876 107.472 143.048C107.724 142.22 108.09 141.494 108.57 140.87C109.05 140.234 109.632 139.742 110.316 139.394C111.012 139.034 111.804 138.854 112.692 138.854C113.58 138.854 114.366 139.034 115.05 139.394C115.746 139.742 116.334 140.234 116.814 140.87C117.294 141.494 117.654 142.22 117.894 143.048C118.146 143.876 118.272 144.758 118.272 145.694C118.272 146.618 118.146 147.494 117.894 148.322C117.654 149.15 117.294 149.882 116.814 150.518C116.334 151.142 115.746 151.634 115.05 151.994C114.366 152.354 113.58 152.534 112.692 152.534ZM112.692 150.068C113.484 150.068 114.132 149.702 114.636 148.97C115.152 148.238 115.41 147.146 115.41 145.694C115.41 144.242 115.152 143.15 114.636 142.418C114.132 141.686 113.484 141.32 112.692 141.32C111.9 141.32 111.246 141.686 110.73 142.418C110.226 143.15 109.974 144.242 109.974 145.694C109.974 147.146 110.226 148.238 110.73 148.97C111.246 149.702 111.9 150.068 112.692 150.068ZM125.655 152.534C124.767 152.534 123.975 152.354 123.279 151.994C122.595 151.634 122.013 151.142 121.533 150.518C121.053 149.882 120.687 149.15 120.435 148.322C120.195 147.494 120.075 146.618 120.075 145.694C120.075 144.758 120.195 143.876 120.435 143.048C120.687 142.22 121.053 141.494 121.533 140.87C122.013 140.234 122.595 139.742 123.279 139.394C123.975 139.034 124.767 138.854 125.655 138.854C126.543 138.854 127.329 139.034 128.013 139.394C128.709 139.742 129.297 140.234 129.777 140.87C130.257 141.494 130.617 142.22 130.857 143.048C131.109 143.876 131.235 144.758 131.235 145.694C131.235 146.618 131.109 147.494 130.857 148.322C130.617 149.15 130.257 149.882 129.777 150.518C129.297 151.142 128.709 151.634 128.013 151.994C127.329 152.354 126.543 152.534 125.655 152.534ZM125.655 150.068C126.447 150.068 127.095 149.702 127.599 148.97C128.115 148.238 128.373 147.146 128.373 145.694C128.373 144.242 128.115 143.15 127.599 142.418C127.095 141.686 126.447 141.32 125.655 141.32C124.863 141.32 124.209 141.686 123.693 142.418C123.189 143.15 122.937 144.242 122.937 145.694C122.937 147.146 123.189 148.238 123.693 148.97C124.209 149.702 124.863 150.068 125.655 150.068ZM138.619 152.534C137.731 152.534 136.939 152.354 136.243 151.994C135.559 151.634 134.977 151.142 134.497 150.518C134.017 149.882 133.651 149.15 133.399 148.322C133.159 147.494 133.039 146.618 133.039 145.694C133.039 144.758 133.159 143.876 133.399 143.048C133.651 142.22 134.017 141.494 134.497 140.87C134.977 140.234 135.559 139.742 136.243 139.394C136.939 139.034 137.731 138.854 138.619 138.854C139.507 138.854 140.293 139.034 140.977 139.394C141.673 139.742 142.261 140.234 142.741 140.87C143.221 141.494 143.581 142.22 143.821 143.048C144.073 143.876 144.199 144.758 144.199 145.694C144.199 146.618 144.073 147.494 143.821 148.322C143.581 149.15 143.221 149.882 142.741 150.518C142.261 151.142 141.673 151.634 140.977 151.994C140.293 152.354 139.507 152.534 138.619 152.534ZM138.619 150.068C139.411 150.068 140.059 149.702 140.563 148.97C141.079 148.238 141.337 147.146 141.337 145.694C141.337 144.242 141.079 143.15 140.563 142.418C140.059 141.686 139.411 141.32 138.619 141.32C137.827 141.32 137.173 141.686 136.657 142.418C136.153 143.15 135.901 144.242 135.901 145.694C135.901 147.146 136.153 148.238 136.657 148.97C137.173 149.702 137.827 150.068 138.619 150.068ZM165.108 152.534C164.22 152.534 163.428 152.354 162.732 151.994C162.048 151.634 161.466 151.142 160.986 150.518C160.506 149.882 160.14 149.15 159.888 148.322C159.648 147.494 159.528 146.618 159.528 145.694C159.528 144.758 159.648 143.876 159.888 143.048C160.14 142.22 160.506 141.494 160.986 140.87C161.466 140.234 162.048 139.742 162.732 139.394C163.428 139.034 164.22 138.854 165.108 138.854C165.996 138.854 166.782 139.034 167.466 139.394C168.162 139.742 168.75 140.234 169.23 140.87C169.71 141.494 170.07 142.22 170.31 143.048C170.562 143.876 170.688 144.758 170.688 145.694C170.688 146.618 170.562 147.494 170.31 148.322C170.07 149.15 169.71 149.882 169.23 150.518C168.75 151.142 168.162 151.634 167.466 151.994C166.782 152.354 165.996 152.534 165.108 152.534ZM165.108 150.068C165.9 150.068 166.548 149.702 167.052 148.97C167.568 148.238 167.826 147.146 167.826 145.694C167.826 144.242 167.568 143.15 167.052 142.418C166.548 141.686 165.9 141.32 165.108 141.32C164.316 141.32 163.662 141.686 163.146 142.418C162.642 143.15 162.39 144.242 162.39 145.694C162.39 147.146 162.642 148.238 163.146 148.97C163.662 149.702 164.316 150.068 165.108 150.068ZM178.071 152.534C177.183 152.534 176.391 152.354 175.695 151.994C175.011 151.634 174.429 151.142 173.949 150.518C173.469 149.882 173.103 149.15 172.851 148.322C172.611 147.494 172.491 146.618 172.491 145.694C172.491 144.758 172.611 143.876 172.851 143.048C173.103 142.22 173.469 141.494 173.949 140.87C174.429 140.234 175.011 139.742 175.695 139.394C176.391 139.034 177.183 138.854 178.071 138.854C178.959 138.854 179.745 139.034 180.429 139.394C181.125 139.742 181.713 140.234 182.193 140.87C182.673 141.494 183.033 142.22 183.273 143.048C183.525 143.876 183.651 144.758 183.651 145.694C183.651 146.618 183.525 147.494 183.273 148.322C183.033 149.15 182.673 149.882 182.193 150.518C181.713 151.142 181.125 151.634 180.429 151.994C179.745 152.354 178.959 152.534 178.071 152.534ZM178.071 150.068C178.863 150.068 179.511 149.702 180.015 148.97C180.531 148.238 180.789 147.146 180.789 145.694C180.789 144.242 180.531 143.15 180.015 142.418C179.511 141.686 178.863 141.32 178.071 141.32C177.279 141.32 176.625 141.686 176.109 142.418C175.605 143.15 175.353 144.242 175.353 145.694C175.353 147.146 175.605 148.238 176.109 148.97C176.625 149.702 177.279 150.068 178.071 150.068ZM191.035 152.534C190.147 152.534 189.355 152.354 188.659 151.994C187.975 151.634 187.393 151.142 186.913 150.518C186.433 149.882 186.067 149.15 185.815 148.322C185.575 147.494 185.455 146.618 185.455 145.694C185.455 144.758 185.575 143.876 185.815 143.048C186.067 142.22 186.433 141.494 186.913 140.87C187.393 140.234 187.975 139.742 188.659 139.394C189.355 139.034 190.147 138.854 191.035 138.854C191.923 138.854 192.709 139.034 193.393 139.394C194.089 139.742 194.677 140.234 195.157 140.87C195.637 141.494 195.997 142.22 196.237 143.048C196.489 143.876 196.615 144.758 196.615 145.694C196.615 146.618 196.489 147.494 196.237 148.322C195.997 149.15 195.637 149.882 195.157 150.518C194.677 151.142 194.089 151.634 193.393 151.994C192.709 152.354 191.923 152.534 191.035 152.534ZM191.035 150.068C191.827 150.068 192.475 149.702 192.979 148.97C193.495 148.238 193.753 147.146 193.753 145.694C193.753 144.242 193.495 143.15 192.979 142.418C192.475 141.686 191.827 141.32 191.035 141.32C190.243 141.32 189.589 141.686 189.073 142.418C188.569 143.15 188.317 144.242 188.317 145.694C188.317 147.146 188.569 148.238 189.073 148.97C189.589 149.702 190.243 150.068 191.035 150.068ZM203.998 152.534C203.11 152.534 202.318 152.354 201.622 151.994C200.938 151.634 200.356 151.142 199.876 150.518C199.396 149.882 199.03 149.15 198.778 148.322C198.538 147.494 198.418 146.618 198.418 145.694C198.418 144.758 198.538 143.876 198.778 143.048C199.03 142.22 199.396 141.494 199.876 140.87C200.356 140.234 200.938 139.742 201.622 139.394C202.318 139.034 203.11 138.854 203.998 138.854C204.886 138.854 205.672 139.034 206.356 139.394C207.052 139.742 207.64 140.234 208.12 140.87C208.6 141.494 208.96 142.22 209.2 143.048C209.452 143.876 209.578 144.758 209.578 145.694C209.578 146.618 209.452 147.494 209.2 148.322C208.96 149.15 208.6 149.882 208.12 150.518C207.64 151.142 207.052 151.634 206.356 151.994C205.672 152.354 204.886 152.534 203.998 152.534ZM203.998 150.068C204.79 150.068 205.438 149.702 205.942 148.97C206.458 148.238 206.716 147.146 206.716 145.694C206.716 144.242 206.458 143.15 205.942 142.418C205.438 141.686 204.79 141.32 203.998 141.32C203.206 141.32 202.552 141.686 202.036 142.418C201.532 143.15 201.28 144.242 201.28 145.694C201.28 147.146 201.532 148.238 202.036 148.97C202.552 149.702 203.206 150.068 203.998 150.068ZM230.487 152.534C229.599 152.534 228.807 152.354 228.111 151.994C227.427 151.634 226.845 151.142 226.365 150.518C225.885 149.882 225.519 149.15 225.267 148.322C225.027 147.494 224.907 146.618 224.907 145.694C224.907 144.758 225.027 143.876 225.267 143.048C225.519 142.22 225.885 141.494 226.365 140.87C226.845 140.234 227.427 139.742 228.111 139.394C228.807 139.034 229.599 138.854 230.487 138.854C231.375 138.854 232.161 139.034 232.845 139.394C233.541 139.742 234.129 140.234 234.609 140.87C235.089 141.494 235.449 142.22 235.689 143.048C235.941 143.876 236.067 144.758 236.067 145.694C236.067 146.618 235.941 147.494 235.689 148.322C235.449 149.15 235.089 149.882 234.609 150.518C234.129 151.142 233.541 151.634 232.845 151.994C232.161 152.354 231.375 152.534 230.487 152.534ZM230.487 150.068C231.279 150.068 231.927 149.702 232.431 148.97C232.947 148.238 233.205 147.146 233.205 145.694C233.205 144.242 232.947 143.15 232.431 142.418C231.927 141.686 231.279 141.32 230.487 141.32C229.695 141.32 229.041 141.686 228.525 142.418C228.021 143.15 227.769 144.242 227.769 145.694C227.769 147.146 228.021 148.238 228.525 148.97C229.041 149.702 229.695 150.068 230.487 150.068ZM243.45 152.534C242.562 152.534 241.77 152.354 241.074 151.994C240.39 151.634 239.808 151.142 239.328 150.518C238.848 149.882 238.482 149.15 238.23 148.322C237.99 147.494 237.87 146.618 237.87 145.694C237.87 144.758 237.99 143.876 238.23 143.048C238.482 142.22 238.848 141.494 239.328 140.87C239.808 140.234 240.39 139.742 241.074 139.394C241.77 139.034 242.562 138.854 243.45 138.854C244.338 138.854 245.124 139.034 245.808 139.394C246.504 139.742 247.092 140.234 247.572 140.87C248.052 141.494 248.412 142.22 248.652 143.048C248.904 143.876 249.03 144.758 249.03 145.694C249.03 146.618 248.904 147.494 248.652 148.322C248.412 149.15 248.052 149.882 247.572 150.518C247.092 151.142 246.504 151.634 245.808 151.994C245.124 152.354 244.338 152.534 243.45 152.534ZM243.45 150.068C244.242 150.068 244.89 149.702 245.394 148.97C245.91 148.238 246.168 147.146 246.168 145.694C246.168 144.242 245.91 143.15 245.394 142.418C244.89 141.686 244.242 141.32 243.45 141.32C242.658 141.32 242.004 141.686 241.488 142.418C240.984 143.15 240.732 144.242 240.732 145.694C240.732 147.146 240.984 148.238 241.488 148.97C242.004 149.702 242.658 150.068 243.45 150.068ZM256.414 152.534C255.526 152.534 254.734 152.354 254.038 151.994C253.354 151.634 252.772 151.142 252.292 150.518C251.812 149.882 251.446 149.15 251.194 148.322C250.954 147.494 250.834 146.618 250.834 145.694C250.834 144.758 250.954 143.876 251.194 143.048C251.446 142.22 251.812 141.494 252.292 140.87C252.772 140.234 253.354 139.742 254.038 139.394C254.734 139.034 255.526 138.854 256.414 138.854C257.302 138.854 258.088 139.034 258.772 139.394C259.468 139.742 260.056 140.234 260.536 140.87C261.016 141.494 261.376 142.22 261.616 143.048C261.868 143.876 261.994 144.758 261.994 145.694C261.994 146.618 261.868 147.494 261.616 148.322C261.376 149.15 261.016 149.882 260.536 150.518C260.056 151.142 259.468 151.634 258.772 151.994C258.088 152.354 257.302 152.534 256.414 152.534ZM256.414 150.068C257.206 150.068 257.854 149.702 258.358 148.97C258.874 148.238 259.132 147.146 259.132 145.694C259.132 144.242 258.874 143.15 258.358 142.418C257.854 141.686 257.206 141.32 256.414 141.32C255.622 141.32 254.968 141.686 254.452 142.418C253.948 143.15 253.696 144.242 253.696 145.694C253.696 147.146 253.948 148.238 254.452 148.97C254.968 149.702 255.622 150.068 256.414 150.068ZM269.377 152.534C268.489 152.534 267.697 152.354 267.001 151.994C266.317 151.634 265.735 151.142 265.255 150.518C264.775 149.882 264.409 149.15 264.157 148.322C263.917 147.494 263.797 146.618 263.797 145.694C263.797 144.758 263.917 143.876 264.157 143.048C264.409 142.22 264.775 141.494 265.255 140.87C265.735 140.234 266.317 139.742 267.001 139.394C267.697 139.034 268.489 138.854 269.377 138.854C270.265 138.854 271.051 139.034 271.736 139.394C272.432 139.742 273.02 140.234 273.5 140.87C273.979 141.494 274.339 142.22 274.58 143.048C274.832 143.876 274.957 144.758 274.957 145.694C274.957 146.618 274.832 147.494 274.58 148.322C274.339 149.15 273.979 149.882 273.5 150.518C273.02 151.142 272.432 151.634 271.736 151.994C271.051 152.354 270.265 152.534 269.377 152.534ZM269.377 150.068C270.169 150.068 270.817 149.702 271.322 148.97C271.838 148.238 272.096 147.146 272.096 145.694C272.096 144.242 271.838 143.15 271.322 142.418C270.817 141.686 270.169 141.32 269.377 141.32C268.585 141.32 267.931 141.686 267.415 142.418C266.911 143.15 266.659 144.242 266.659 145.694C266.659 147.146 266.911 148.238 267.415 148.97C267.931 149.702 268.585 150.068 269.377 150.068Z" fill="white"/>
<path d="M34.698 181.14C33.8393 181.14 33.088 180.991 32.444 180.692C31.8093 180.384 31.2773 179.978 30.848 179.474C30.4187 178.961 30.0967 178.387 29.882 177.752C29.6673 177.117 29.56 176.469 29.56 175.806C29.56 175.153 29.6673 174.509 29.882 173.874C30.0967 173.239 30.4187 172.67 30.848 172.166C31.2773 171.653 31.8093 171.247 32.444 170.948C33.088 170.649 33.8393 170.5 34.698 170.5C35.4167 170.5 36.028 170.593 36.532 170.78C37.0453 170.957 37.47 171.191 37.806 171.48C38.1513 171.76 38.4267 172.063 38.632 172.39C38.8467 172.707 39.0053 173.011 39.108 173.3C39.2107 173.58 39.276 173.813 39.304 174C39.3413 174.177 39.36 174.266 39.36 174.266H37.218C37.218 174.266 37.1993 174.205 37.162 174.084C37.134 173.953 37.0733 173.799 36.98 173.622C36.8867 173.435 36.7467 173.253 36.56 173.076C36.3827 172.899 36.14 172.749 35.832 172.628C35.5333 172.497 35.16 172.432 34.712 172.432C34.068 172.432 33.5267 172.6 33.088 172.936C32.6587 173.263 32.332 173.683 32.108 174.196C31.8933 174.709 31.786 175.246 31.786 175.806C31.786 176.366 31.8933 176.907 32.108 177.43C32.332 177.943 32.6587 178.368 33.088 178.704C33.5267 179.031 34.068 179.194 34.712 179.194C35.16 179.194 35.5333 179.133 35.832 179.012C36.14 178.891 36.3827 178.741 36.56 178.564C36.7467 178.377 36.8867 178.195 36.98 178.018C37.0733 177.831 37.134 177.677 37.162 177.556C37.1993 177.435 37.218 177.374 37.218 177.374H39.36C39.36 177.374 39.3413 177.467 39.304 177.654C39.276 177.831 39.2107 178.065 39.108 178.354C39.0053 178.634 38.8467 178.937 38.632 179.264C38.4267 179.581 38.1513 179.885 37.806 180.174C37.47 180.454 37.0453 180.687 36.532 180.874C36.028 181.051 35.4167 181.14 34.698 181.14ZM39.7833 181L43.3113 170.64H46.1813L49.7093 181H47.4413L46.7833 178.97H42.7233L42.0513 181H39.7833ZM43.3253 177.094H46.1813L44.7533 172.768L43.3253 177.094ZM51.075 181V170.64H55.275C56.0404 170.64 56.6937 170.775 57.235 171.046C57.7857 171.317 58.2057 171.69 58.495 172.166C58.7937 172.642 58.943 173.193 58.943 173.818C58.943 174.499 58.7704 175.097 58.425 175.61C58.0797 176.114 57.5897 176.483 56.955 176.716L59.209 181H56.815L54.757 177.01H53.231V181H51.075ZM55.247 172.502H53.231V175.246H55.247C55.723 175.246 56.0964 175.115 56.367 174.854C56.6377 174.593 56.773 174.271 56.773 173.888C56.773 173.496 56.6377 173.169 56.367 172.908C56.0964 172.637 55.723 172.502 55.247 172.502ZM61.0418 181V170.64H64.9618C65.8018 170.64 66.5392 170.789 67.1738 171.088C67.8178 171.377 68.3498 171.769 68.7698 172.264C69.1898 172.759 69.5072 173.314 69.7218 173.93C69.9365 174.546 70.0438 175.176 70.0438 175.82C70.0438 176.464 69.9365 177.094 69.7218 177.71C69.5072 178.326 69.1898 178.881 68.7698 179.376C68.3498 179.871 67.8178 180.267 67.1738 180.566C66.5392 180.855 65.8018 181 64.9618 181H61.0418ZM64.8638 172.53H63.1978V179.082H64.8638C65.5452 179.082 66.1052 178.923 66.5438 178.606C66.9918 178.289 67.3232 177.878 67.5378 177.374C67.7618 176.87 67.8738 176.347 67.8738 175.806C67.8738 175.265 67.7618 174.747 67.5378 174.252C67.3232 173.748 66.9918 173.337 66.5438 173.02C66.1052 172.693 65.5452 172.53 64.8638 172.53ZM74.7821 181V170.64H76.9381V174.77H80.9701V170.64H83.1261V181H80.9701V176.646H76.9381V181H74.7821ZM89.88 181.14C89.0213 181.14 88.2653 180.991 87.612 180.692C86.9587 180.384 86.408 179.978 85.96 179.474C85.5213 178.961 85.19 178.387 84.966 177.752C84.7513 177.117 84.644 176.469 84.644 175.806C84.644 175.143 84.7513 174.499 84.966 173.874C85.19 173.239 85.5213 172.67 85.96 172.166C86.408 171.662 86.9587 171.261 87.612 170.962C88.2653 170.654 89.0213 170.5 89.88 170.5C90.748 170.5 91.5087 170.654 92.162 170.962C92.8153 171.261 93.3613 171.662 93.8 172.166C94.2387 172.67 94.5653 173.239 94.78 173.874C95.004 174.499 95.116 175.143 95.116 175.806C95.116 176.469 95.004 177.117 94.78 177.752C94.5653 178.387 94.2387 178.961 93.8 179.474C93.3613 179.978 92.8153 180.384 92.162 180.692C91.5087 180.991 90.748 181.14 89.88 181.14ZM89.88 179.194C90.5333 179.194 91.084 179.031 91.532 178.704C91.98 178.377 92.316 177.957 92.54 177.444C92.764 176.921 92.876 176.375 92.876 175.806C92.876 175.237 92.764 174.695 92.54 174.182C92.316 173.669 91.98 173.249 91.532 172.922C91.084 172.595 90.5333 172.432 89.88 172.432C89.2267 172.432 88.676 172.595 88.228 172.922C87.7893 173.249 87.458 173.669 87.234 174.182C87.01 174.695 86.898 175.237 86.898 175.806C86.898 176.375 87.01 176.921 87.234 177.444C87.458 177.957 87.7893 178.377 88.228 178.704C88.676 179.031 89.2267 179.194 89.88 179.194ZM96.6297 181V170.64H98.7857V179.124H103.854V181H96.6297ZM105.626 181V170.64H109.546C110.386 170.64 111.123 170.789 111.758 171.088C112.402 171.377 112.934 171.769 113.354 172.264C113.774 172.759 114.091 173.314 114.306 173.93C114.52 174.546 114.628 175.176 114.628 175.82C114.628 176.464 114.52 177.094 114.306 177.71C114.091 178.326 113.774 178.881 113.354 179.376C112.934 179.871 112.402 180.267 111.758 180.566C111.123 180.855 110.386 181 109.546 181H105.626ZM109.448 172.53H107.782V179.082H109.448C110.129 179.082 110.689 178.923 111.128 178.606C111.576 178.289 111.907 177.878 112.122 177.374C112.346 176.87 112.458 176.347 112.458 175.806C112.458 175.265 112.346 174.747 112.122 174.252C111.907 173.748 111.576 173.337 111.128 173.02C110.689 172.693 110.129 172.53 109.448 172.53ZM116.14 181V170.64H123.28V172.516H118.296V174.84H122.636V176.646H118.296V179.124H123.35V181H116.14ZM125.122 181V170.64H129.322C130.087 170.64 130.741 170.775 131.282 171.046C131.833 171.317 132.253 171.69 132.542 172.166C132.841 172.642 132.99 173.193 132.99 173.818C132.99 174.499 132.817 175.097 132.472 175.61C132.127 176.114 131.637 176.483 131.002 176.716L133.256 181H130.862L128.804 177.01H127.278V181H125.122ZM129.294 172.502H127.278V175.246H129.294C129.77 175.246 130.143 175.115 130.414 174.854C130.685 174.593 130.82 174.271 130.82 173.888C130.82 173.496 130.685 173.169 130.414 172.908C130.143 172.637 129.77 172.502 129.294 172.502ZM138.315 181V170.64H140.289L144.755 177.248V170.64H146.897V181H144.895L140.457 174.574V181H138.315ZM148.27 181L151.798 170.64H154.668L158.196 181H155.928L155.27 178.97H151.21L150.538 181H148.27ZM151.812 177.094H154.668L153.24 172.768L151.812 177.094ZM159.561 181V170.64H162.473L164.839 175.974L167.275 170.64H170.089V181H167.961V173.944L165.833 178.578H163.831L161.689 173.916V181H159.561ZM171.989 181V170.64H179.129V172.516H174.145V174.84H178.485V176.646H174.145V179.124H179.199V181H171.989Z" fill="white"/>
<path d="M295.9 181.14C295.209 181.14 294.593 181 294.052 180.72C293.52 180.44 293.067 180.057 292.694 179.572C292.321 179.077 292.036 178.508 291.84 177.864C291.653 177.22 291.56 176.539 291.56 175.82C291.56 175.092 291.653 174.406 291.84 173.762C292.036 173.118 292.321 172.553 292.694 172.068C293.067 171.573 293.52 171.191 294.052 170.92C294.593 170.64 295.209 170.5 295.9 170.5C296.591 170.5 297.202 170.64 297.734 170.92C298.275 171.191 298.733 171.573 299.106 172.068C299.479 172.553 299.759 173.118 299.946 173.762C300.142 174.406 300.24 175.092 300.24 175.82C300.24 176.539 300.142 177.22 299.946 177.864C299.759 178.508 299.479 179.077 299.106 179.572C298.733 180.057 298.275 180.44 297.734 180.72C297.202 181 296.591 181.14 295.9 181.14ZM295.9 179.222C296.516 179.222 297.02 178.937 297.412 178.368C297.813 177.799 298.014 176.949 298.014 175.82C298.014 174.691 297.813 173.841 297.412 173.272C297.02 172.703 296.516 172.418 295.9 172.418C295.284 172.418 294.775 172.703 294.374 173.272C293.982 173.841 293.786 174.691 293.786 175.82C293.786 176.949 293.982 177.799 294.374 178.368C294.775 178.937 295.284 179.222 295.9 179.222ZM305.703 181.14C305.012 181.14 304.396 181 303.855 180.72C303.323 180.44 302.87 180.057 302.497 179.572C302.123 179.077 301.839 178.508 301.643 177.864C301.456 177.22 301.363 176.539 301.363 175.82C301.363 175.092 301.456 174.406 301.643 173.762C301.839 173.118 302.123 172.553 302.497 172.068C302.87 171.573 303.323 171.191 303.855 170.92C304.396 170.64 305.012 170.5 305.703 170.5C306.393 170.5 307.005 170.64 307.537 170.92C308.078 171.191 308.535 171.573 308.909 172.068C309.282 172.553 309.562 173.118 309.749 173.762C309.945 174.406 310.043 175.092 310.043 175.82C310.043 176.539 309.945 177.22 309.749 177.864C309.562 178.508 309.282 179.077 308.909 179.572C308.535 180.057 308.078 180.44 307.537 180.72C307.005 181 306.393 181.14 305.703 181.14ZM305.703 179.222C306.319 179.222 306.823 178.937 307.215 178.368C307.616 177.799 307.817 176.949 307.817 175.82C307.817 174.691 307.616 173.841 307.215 173.272C306.823 172.703 306.319 172.418 305.703 172.418C305.087 172.418 304.578 172.703 304.177 173.272C303.785 173.841 303.589 174.691 303.589 175.82C303.589 176.949 303.785 177.799 304.177 178.368C304.578 178.937 305.087 179.222 305.703 179.222ZM311.081 183.534L315.953 169.394H317.871L312.999 183.534H311.081ZM323.08 181.14C322.389 181.14 321.773 181 321.232 180.72C320.7 180.44 320.247 180.057 319.874 179.572C319.5 179.077 319.216 178.508 319.02 177.864C318.833 177.22 318.74 176.539 318.74 175.82C318.74 175.092 318.833 174.406 319.02 173.762C319.216 173.118 319.5 172.553 319.874 172.068C320.247 171.573 320.7 171.191 321.232 170.92C321.773 170.64 322.389 170.5 323.08 170.5C323.77 170.5 324.382 170.64 324.914 170.92C325.455 171.191 325.912 171.573 326.286 172.068C326.659 172.553 326.939 173.118 327.126 173.762C327.322 174.406 327.42 175.092 327.42 175.82C327.42 176.539 327.322 177.22 327.126 177.864C326.939 178.508 326.659 179.077 326.286 179.572C325.912 180.057 325.455 180.44 324.914 180.72C324.382 181 323.77 181.14 323.08 181.14ZM323.08 179.222C323.696 179.222 324.2 178.937 324.592 178.368C324.993 177.799 325.194 176.949 325.194 175.82C325.194 174.691 324.993 173.841 324.592 173.272C324.2 172.703 323.696 172.418 323.08 172.418C322.464 172.418 321.955 172.703 321.554 173.272C321.162 173.841 320.966 174.691 320.966 175.82C320.966 176.949 321.162 177.799 321.554 178.368C321.955 178.937 322.464 179.222 323.08 179.222ZM332.882 181.14C332.192 181.14 331.576 181 331.034 180.72C330.502 180.44 330.05 180.057 329.676 179.572C329.303 179.077 329.018 178.508 328.822 177.864C328.636 177.22 328.542 176.539 328.542 175.82C328.542 175.092 328.636 174.406 328.822 173.762C329.018 173.118 329.303 172.553 329.676 172.068C330.05 171.573 330.502 171.191 331.034 170.92C331.576 170.64 332.192 170.5 332.882 170.5C333.573 170.5 334.184 170.64 334.716 170.92C335.258 171.191 335.715 171.573 336.088 172.068C336.462 172.553 336.742 173.118 336.928 173.762C337.124 174.406 337.222 175.092 337.222 175.82C337.222 176.539 337.124 177.22 336.928 177.864C336.742 178.508 336.462 179.077 336.088 179.572C335.715 180.057 335.258 180.44 334.716 180.72C334.184 181 333.573 181.14 332.882 181.14ZM332.882 179.222C333.498 179.222 334.002 178.937 334.394 178.368C334.796 177.799 334.996 176.949 334.996 175.82C334.996 174.691 334.796 173.841 334.394 173.272C334.002 172.703 333.498 172.418 332.882 172.418C332.266 172.418 331.758 172.703 331.356 173.272C330.964 173.841 330.768 174.691 330.768 175.82C330.768 176.949 330.964 177.799 331.356 178.368C331.758 178.937 332.266 179.222 332.882 179.222Z" fill="white"/>
<path d="M331.875 109.107C335.636 105.431 337.748 100.453 337.748 95.2627C337.748 90.0727 335.636 85.0943 331.875 81.418C331.764 81.309 331.632 81.2223 331.486 81.1629C331.34 81.1036 331.184 81.0728 331.026 81.0723C330.869 81.0717 330.712 81.1015 330.566 81.1598C330.42 81.2182 330.287 81.3039 330.175 81.4123C330.063 81.5206 329.974 81.6494 329.913 81.7912C329.853 81.933 329.821 82.0851 329.82 82.2389C329.82 82.3926 329.85 82.5449 329.91 82.6872C329.97 82.8294 330.058 82.9588 330.169 83.0679C333.475 86.3098 335.33 90.6936 335.33 95.2627C335.33 99.8318 333.475 104.216 330.169 107.458C330.053 107.565 329.96 107.695 329.897 107.839C329.833 107.983 329.801 108.137 329.801 108.294C329.801 108.45 329.833 108.605 329.897 108.749C329.96 108.893 330.053 109.023 330.169 109.13C330.28 109.242 330.412 109.331 330.559 109.392C330.705 109.452 330.863 109.483 331.022 109.483C331.181 109.483 331.339 109.452 331.486 109.392C331.632 109.331 331.765 109.242 331.875 109.13V109.107Z" fill="white"/>
<path d="M327.968 85.1908C327.858 85.0773 327.724 84.987 327.577 84.9252C327.429 84.8635 327.27 84.8317 327.109 84.8317C326.949 84.8317 326.79 84.8635 326.642 84.9252C326.495 84.987 326.361 85.0773 326.251 85.1908C326.134 85.2986 326.041 85.4283 325.978 85.5721C325.915 85.7159 325.882 85.8708 325.882 86.0273C325.882 86.1838 325.915 86.3386 325.978 86.4824C326.041 86.6262 326.134 86.756 326.251 86.8637C328.531 89.0877 329.812 92.1025 329.812 95.2459C329.812 98.3892 328.531 101.404 326.251 103.628C326.07 103.788 325.944 103.998 325.89 104.23C325.837 104.462 325.858 104.705 325.951 104.924C326.045 105.144 326.206 105.33 326.412 105.458C326.618 105.585 326.86 105.647 327.103 105.636C327.264 105.638 327.424 105.609 327.572 105.549C327.721 105.49 327.856 105.401 327.968 105.289C330.698 102.621 332.231 99.0073 332.231 95.2401C332.231 91.4729 330.698 87.8593 327.968 85.1908Z" fill="white"/>
<path d="M324.213 88.8366C323.987 88.6163 323.68 88.4926 323.36 88.4926C323.041 88.4926 322.734 88.6163 322.508 88.8366C322.281 89.057 322.154 89.3558 322.154 89.6674C322.154 89.9789 322.281 90.2778 322.508 90.4981C323.792 91.7544 324.513 93.4554 324.513 95.2285C324.513 97.0017 323.792 98.7026 322.508 99.959C322.281 100.179 322.154 100.478 322.154 100.79C322.154 101.101 322.281 101.4 322.508 101.62C322.734 101.841 323.041 101.964 323.36 101.964C323.68 101.964 323.987 101.841 324.213 101.62C325.952 99.9244 326.929 97.6254 326.929 95.2285C326.929 92.8316 325.952 90.5327 324.213 88.8366Z" fill="white"/>
<path d="M320.955 95.2398C320.955 94.7834 320.816 94.3373 320.555 93.9578C320.295 93.5783 319.925 93.2826 319.492 93.1079C319.059 92.9332 318.583 92.8876 318.124 92.9766C317.664 93.0656 317.242 93.2854 316.911 93.6081C316.579 93.9308 316.354 94.342 316.262 94.7896C316.171 95.2372 316.218 95.7012 316.397 96.1228C316.576 96.5445 316.88 96.9049 317.27 97.1584C317.659 97.412 318.117 97.5473 318.586 97.5473C319.214 97.5473 319.817 97.3042 320.261 96.8715C320.705 96.4387 320.955 95.8518 320.955 95.2398Z" fill="white"/>
<path d="M58.4269 85.537C56.5021 85.54 54.6571 86.2861 53.2961 87.6118C51.9351 88.9374 51.1691 90.7345 51.166 92.6093V106.927C51.166 108.803 51.931 110.602 53.2927 111.928C54.6544 113.254 56.5012 113.999 58.4269 113.999C60.3526 113.999 62.1994 113.254 63.5611 111.928C64.9228 110.602 65.6878 108.803 65.6878 106.927V92.6093C65.6846 90.7345 64.9187 88.9374 63.5577 87.6118C62.1967 86.2861 60.3516 85.54 58.4269 85.537Z" fill="url(#paint3_linear_259_2362)"/>
<path d="M58.4267 84.5448C60.444 84.5492 62.3905 85.2699 63.9015 86.5718C65.4125 87.8738 66.3844 89.6676 66.6352 91.6174H74.4646V81.3027H42.377V91.6174H50.2064C50.4574 89.6657 51.431 87.8702 52.9445 86.568C54.458 85.2658 56.4073 84.5464 58.4267 84.5448Z" fill="url(#paint4_linear_259_2362)"/>
<path d="M75.4844 91.6173H86.3105V86.5292C86.3105 85.8458 86.1724 85.1692 85.9039 84.5379C85.6355 83.9066 85.242 83.3329 84.7459 82.8498C84.2499 82.3666 83.661 81.9833 83.0128 81.7218C82.3647 81.4603 81.6701 81.3257 80.9685 81.3257H75.4844V91.6173Z" fill="url(#paint5_linear_259_2362)"/>
<path d="M58.4267 115.003C56.4055 115.001 54.4547 114.28 52.9409 112.976C51.4271 111.671 50.4547 109.873 50.2064 107.919H42.377V118.245H74.4646V107.919H66.6352C66.3871 109.871 65.4164 111.668 63.9051 112.972C62.3938 114.276 60.4458 114.998 58.4267 115.003Z" fill="url(#paint6_linear_259_2362)"/>
<path d="M86.3102 92.6093H66.707V106.928H86.3102V92.6093Z" fill="url(#paint7_linear_259_2362)"/>
<path d="M41.3573 107.919H30.543V113.065C30.543 114.445 31.1058 115.768 32.1076 116.744C33.1094 117.72 34.4682 118.268 35.885 118.268H41.3573V107.919Z" fill="url(#paint8_linear_259_2362)"/>
<path d="M75.4844 107.919V118.245H80.9685C82.3812 118.245 83.7364 117.7 84.7376 116.729C85.7387 115.759 86.3043 114.441 86.3105 113.065V107.919H75.4844Z" fill="url(#paint9_linear_259_2362)"/>
<path d="M30.543 106.928H50.1462V92.6093H30.543V106.928Z" fill="url(#paint10_linear_259_2362)"/>
<path d="M41.3573 91.6174V81.3027H35.885C35.1815 81.3027 34.4849 81.4381 33.8353 81.701C33.1856 81.964 32.5956 82.3493 32.0993 82.835C31.6029 83.3206 31.2099 83.8969 30.9428 84.5309C30.6758 85.1649 30.5399 85.844 30.543 86.5293V91.6405L41.3573 91.6174Z" fill="url(#paint11_linear_259_2362)"/>
<path d="M36.2861 62.3661C35.5741 62.3661 34.9501 62.2381 34.4141 61.9821C33.8861 61.7181 33.4421 61.3701 33.0821 60.9381C32.7301 60.4981 32.4621 60.0101 32.2781 59.4741C32.1021 58.9301 32.0141 58.3741 32.0141 57.8061C32.0141 57.2381 32.1021 56.6821 32.2781 56.1381C32.4621 55.5941 32.7301 55.1061 33.0821 54.6741C33.4421 54.2341 33.8861 53.8861 34.4141 53.6301C34.9501 53.3741 35.5741 53.2461 36.2861 53.2461C36.8701 53.2461 37.3701 53.3221 37.7861 53.4741C38.2101 53.6261 38.5621 53.8221 38.8421 54.0621C39.1301 54.2941 39.3581 54.5421 39.5261 54.8061C39.7021 55.0701 39.8301 55.3221 39.9101 55.5621C39.9981 55.8021 40.0581 55.9981 40.0901 56.1501C40.1221 56.2941 40.1381 56.3661 40.1381 56.3661H38.7341C38.7341 56.3661 38.7181 56.3061 38.6861 56.1861C38.6621 56.0581 38.6021 55.9021 38.5061 55.7181C38.4181 55.5341 38.2821 55.3541 38.0981 55.1781C37.9221 54.9941 37.6861 54.8421 37.3901 54.7221C37.1021 54.5941 36.7381 54.5301 36.2981 54.5301C35.8261 54.5301 35.4101 54.6221 35.0501 54.8061C34.6981 54.9901 34.4021 55.2381 34.1621 55.5501C33.9221 55.8621 33.7421 56.2141 33.6221 56.6061C33.5101 56.9981 33.4541 57.3981 33.4541 57.8061C33.4541 58.2141 33.5101 58.6141 33.6221 59.0061C33.7421 59.3901 33.9221 59.7421 34.1621 60.0621C34.4021 60.3741 34.6981 60.6221 35.0501 60.8061C35.4101 60.9901 35.8261 61.0821 36.2981 61.0821C36.7381 61.0821 37.1021 61.0221 37.3901 60.9021C37.6861 60.7741 37.9221 60.6181 38.0981 60.4341C38.2821 60.2501 38.4181 60.0661 38.5061 59.8821C38.6021 59.6981 38.6621 59.5461 38.6861 59.4261C38.7181 59.2981 38.7341 59.2341 38.7341 59.2341H40.1381C40.1381 59.2341 40.1221 59.3101 40.0901 59.4621C40.0581 59.6141 39.9981 59.8101 39.9101 60.0501C39.8301 60.2821 39.7021 60.5341 39.5261 60.8061C39.3581 61.0701 39.1301 61.3221 38.8421 61.5621C38.5621 61.7941 38.2101 61.9861 37.7861 62.1381C37.3701 62.2901 36.8701 62.3661 36.2861 62.3661ZM41.6542 62.2461V53.3661H44.9542C45.5862 53.3661 46.1182 53.4901 46.5502 53.7381C46.9902 53.9781 47.3222 54.2981 47.5462 54.6981C47.7702 55.0901 47.8822 55.5181 47.8822 55.9821C47.8822 56.5421 47.7222 57.0501 47.4022 57.5061C47.0902 57.9621 46.6302 58.2821 46.0222 58.4661L48.1582 62.2461H46.5862L44.5702 58.6221H43.0582V62.2461H41.6542ZM44.9302 54.5901H43.0582V57.4461H44.9302C45.4342 57.4461 45.8142 57.3021 46.0702 57.0141C46.3262 56.7181 46.4542 56.3861 46.4542 56.0181C46.4542 55.6501 46.3262 55.3221 46.0702 55.0341C45.8142 54.7381 45.4342 54.5901 44.9302 54.5901ZM49.8456 62.2461V53.3661H55.6416V54.5901H51.2496V57.1221H55.0896V58.3341H51.2496V61.0221H55.7016V62.2461H49.8456ZM57.369 62.2461V53.3661H60.405C61.117 53.3661 61.741 53.4941 62.277 53.7501C62.813 53.9981 63.257 54.3341 63.609 54.7581C63.969 55.1821 64.237 55.6581 64.413 56.1861C64.597 56.7141 64.689 57.2541 64.689 57.8061C64.689 58.3581 64.597 58.8981 64.413 59.4261C64.237 59.9541 63.969 60.4301 63.609 60.8541C63.257 61.2781 62.813 61.6181 62.277 61.8741C61.741 62.1221 61.117 62.2461 60.405 62.2461H57.369ZM60.345 54.5901H58.773V61.0101H60.345C60.841 61.0101 61.273 60.9221 61.641 60.7461C62.009 60.5621 62.313 60.3181 62.553 60.0141C62.793 59.7021 62.973 59.3581 63.093 58.9821C63.221 58.5981 63.285 58.2061 63.285 57.8061C63.285 57.4061 63.221 57.0141 63.093 56.6301C62.973 56.2461 62.793 55.9021 62.553 55.5981C62.313 55.2941 62.009 55.0501 61.641 54.8661C61.273 54.6821 60.841 54.5901 60.345 54.5901ZM66.205 62.2461V53.3661H67.609V62.2461H66.205ZM71.7916 62.2461V54.5901H69.0316V53.3661H75.9436V54.5901H73.1836V62.2461H71.7916ZM84.0986 62.3661C83.3866 62.3661 82.7626 62.2381 82.2266 61.9821C81.6986 61.7181 81.2546 61.3701 80.8946 60.9381C80.5426 60.4981 80.2746 60.0101 80.0906 59.4741C79.9146 58.9301 79.8266 58.3741 79.8266 57.8061C79.8266 57.2381 79.9146 56.6821 80.0906 56.1381C80.2746 55.5941 80.5426 55.1061 80.8946 54.6741C81.2546 54.2341 81.6986 53.8861 82.2266 53.6301C82.7626 53.3741 83.3866 53.2461 84.0986 53.2461C84.6826 53.2461 85.1826 53.3221 85.5986 53.4741C86.0226 53.6261 86.3746 53.8221 86.6546 54.0621C86.9426 54.2941 87.1706 54.5421 87.3386 54.8061C87.5146 55.0701 87.6426 55.3221 87.7226 55.5621C87.8106 55.8021 87.8706 55.9981 87.9026 56.1501C87.9346 56.2941 87.9506 56.3661 87.9506 56.3661H86.5466C86.5466 56.3661 86.5306 56.3061 86.4986 56.1861C86.4746 56.0581 86.4146 55.9021 86.3186 55.7181C86.2306 55.5341 86.0946 55.3541 85.9106 55.1781C85.7346 54.9941 85.4986 54.8421 85.2026 54.7221C84.9146 54.5941 84.5506 54.5301 84.1106 54.5301C83.6386 54.5301 83.2226 54.6221 82.8626 54.8061C82.5106 54.9901 82.2146 55.2381 81.9746 55.5501C81.7346 55.8621 81.5546 56.2141 81.4346 56.6061C81.3226 56.9981 81.2666 57.3981 81.2666 57.8061C81.2666 58.2141 81.3226 58.6141 81.4346 59.0061C81.5546 59.3901 81.7346 59.7421 81.9746 60.0621C82.2146 60.3741 82.5106 60.6221 82.8626 60.8061C83.2226 60.9901 83.6386 61.0821 84.1106 61.0821C84.5506 61.0821 84.9146 61.0221 85.2026 60.9021C85.4986 60.7741 85.7346 60.6181 85.9106 60.4341C86.0946 60.2501 86.2306 60.0661 86.3186 59.8821C86.4146 59.6981 86.4746 59.5461 86.4986 59.4261C86.5306 59.2981 86.5466 59.2341 86.5466 59.2341H87.9506C87.9506 59.2341 87.9346 59.3101 87.9026 59.4621C87.8706 59.6141 87.8106 59.8101 87.7226 60.0501C87.6426 60.2821 87.5146 60.5341 87.3386 60.8061C87.1706 61.0701 86.9426 61.3221 86.6546 61.5621C86.3746 61.7941 86.0226 61.9861 85.5986 62.1381C85.1826 62.2901 84.6826 62.3661 84.0986 62.3661ZM88.5542 62.2461L91.6502 53.3661H93.4502L96.5582 62.2461H95.0822L94.3982 60.2541H90.7142L90.0302 62.2461H88.5542ZM91.1342 59.0061H93.9782L92.5622 54.8661L91.1342 59.0061ZM97.9511 62.2461V53.3661H101.251C101.883 53.3661 102.415 53.4901 102.847 53.7381C103.287 53.9781 103.619 54.2981 103.843 54.6981C104.067 55.0901 104.179 55.5181 104.179 55.9821C104.179 56.5421 104.019 57.0501 103.699 57.5061C103.387 57.9621 102.927 58.2821 102.319 58.4661L104.455 62.2461H102.883L100.867 58.6221H99.3551V62.2461H97.9511ZM101.227 54.5901H99.3551V57.4461H101.227C101.731 57.4461 102.111 57.3021 102.367 57.0141C102.623 56.7181 102.751 56.3861 102.751 56.0181C102.751 55.6501 102.623 55.3221 102.367 55.0341C102.111 54.7381 101.731 54.5901 101.227 54.5901ZM106.142 62.2461V53.3661H109.178C109.89 53.3661 110.514 53.4941 111.05 53.7501C111.586 53.9981 112.03 54.3341 112.382 54.7581C112.742 55.1821 113.01 55.6581 113.186 56.1861C113.37 56.7141 113.462 57.2541 113.462 57.8061C113.462 58.3581 113.37 58.8981 113.186 59.4261C113.01 59.9541 112.742 60.4301 112.382 60.8541C112.03 61.2781 111.586 61.6181 111.05 61.8741C110.514 62.1221 109.89 62.2461 109.178 62.2461H106.142ZM109.118 54.5901H107.546V61.0101H109.118C109.614 61.0101 110.046 60.9221 110.414 60.7461C110.782 60.5621 111.086 60.3181 111.326 60.0141C111.566 59.7021 111.746 59.3581 111.866 58.9821C111.994 58.5981 112.058 58.2061 112.058 57.8061C112.058 57.4061 111.994 57.0141 111.866 56.6301C111.746 56.2461 111.566 55.9021 111.326 55.5981C111.086 55.2941 110.782 55.0501 110.414 54.8661C110.046 54.6821 109.614 54.5901 109.118 54.5901Z" fill="white"/>
<defs>
<linearGradient id="paint0_linear_259_2362" x1="722.5" y1="-438" x2="9.01215" y2="279.898" gradientUnits="userSpaceOnUse">
<stop stop-color="#FFA305"/>
<stop offset="0.100163" stop-color="#FFA305"/>
<stop offset="1" stop-color="#07280F"/>
<stop offset="1" stop-color="#FFA305"/>
</linearGradient>
<linearGradient id="paint1_linear_259_2362" x1="164.961" y1="156.56" x2="319.534" y2="-76.0107" gradientUnits="userSpaceOnUse">
<stop stop-color="white" stop-opacity="0"/>
<stop offset="1" stop-color="#F7EBEB"/>
</linearGradient>
<linearGradient id="paint2_linear_259_2362" x1="110.296" y1="145.127" x2="250.133" y2="-65.2776" gradientUnits="userSpaceOnUse">
<stop stop-color="white" stop-opacity="0"/>
<stop offset="1" stop-color="#F7EBEB"/>
</linearGradient>
<linearGradient id="paint3_linear_259_2362" x1="31.5984" y1="116.203" x2="90.2912" y2="78.3187" gradientUnits="userSpaceOnUse">
<stop stop-color="#FADF14"/>
<stop offset="0.5" stop-color="#FFB42E"/>
<stop offset="1" stop-color="#E66712"/>
</linearGradient>
<linearGradient id="paint4_linear_259_2362" x1="25.4389" y1="106.663" x2="84.1331" y2="68.779" gradientUnits="userSpaceOnUse">
<stop stop-color="#FADF14"/>
<stop offset="0.5" stop-color="#FFB42E"/>
<stop offset="1" stop-color="#E66712"/>
</linearGradient>
<linearGradient id="paint5_linear_259_2362" x1="31.8125" y1="116.527" x2="90.4948" y2="78.6438" gradientUnits="userSpaceOnUse">
<stop stop-color="#FADF14"/>
<stop offset="0.5" stop-color="#FFB42E"/>
<stop offset="1" stop-color="#E66712"/>
</linearGradient>
<linearGradient id="paint6_linear_259_2362" x1="37.7575" y1="125.745" x2="96.4513" y2="87.8495" gradientUnits="userSpaceOnUse">
<stop stop-color="#FADF14"/>
<stop offset="0.5" stop-color="#FFB42E"/>
<stop offset="1" stop-color="#E66712"/>
</linearGradient>
<linearGradient id="paint7_linear_259_2362" x1="36.7278" y1="124.142" x2="95.4216" y2="86.2465" gradientUnits="userSpaceOnUse">
<stop stop-color="#FADF14"/>
<stop offset="0.5" stop-color="#FFB42E"/>
<stop offset="1" stop-color="#E66712"/>
</linearGradient>
<linearGradient id="paint8_linear_259_2362" x1="31.3958" y1="115.869" x2="90.0781" y2="77.9851" gradientUnits="userSpaceOnUse">
<stop stop-color="#FADF14"/>
<stop offset="0.5" stop-color="#FFB42E"/>
<stop offset="1" stop-color="#E66712"/>
</linearGradient>
<linearGradient id="paint9_linear_259_2362" x1="43.5981" y1="134.767" x2="102.28" y2="96.8838" gradientUnits="userSpaceOnUse">
<stop stop-color="#FADF14"/>
<stop offset="0.5" stop-color="#FFB42E"/>
<stop offset="1" stop-color="#E66712"/>
</linearGradient>
<linearGradient id="paint10_linear_259_2362" x1="26.4802" y1="108.266" x2="85.1621" y2="70.3708" gradientUnits="userSpaceOnUse">
<stop stop-color="#FADF14"/>
<stop offset="0.5" stop-color="#FFB42E"/>
<stop offset="1" stop-color="#E66712"/>
</linearGradient>
<linearGradient id="paint11_linear_259_2362" x1="19.6102" y1="97.6285" x2="78.3045" y2="59.745" gradientUnits="userSpaceOnUse">
<stop stop-color="#FADF14"/>
<stop offset="0.5" stop-color="#FFB42E"/>
<stop offset="1" stop-color="#E66712"/>
</linearGradient>
</defs>
</svg>
