<svg width="15" height="15" viewBox="0 0 15 15" fill="none" xmlns="http://www.w3.org/2000/svg">
<path d="M0 13.5148C0 14.3316 0.668317 14.9999 1.48515 14.9999H3.41584L0 11.5841V13.5148Z" fill="#12991F"/>
<path d="M14.5543 2.82178L12.178 0.445545C11.584 -0.148515 10.6929 -0.148515 10.0988 0.445545L9.95031 0.59406C9.65328 0.891089 9.65328 1.33663 9.95031 1.63366L13.3662 5.04951C13.6632 5.34654 14.1087 5.34654 14.4058 5.04951L14.5543 4.90099C15.1483 4.30693 15.1483 3.41584 14.5543 2.82178Z" fill="#12991F"/>
<path d="M8.91075 2.67321C8.61372 2.37618 8.16818 2.37618 7.87115 2.67321L1.11372 9.43064C0.742431 9.80193 0.742431 10.2475 1.03946 10.5445L4.4553 13.9603C4.75233 14.2574 5.19788 14.2574 5.49491 13.9603L12.2523 7.20292C12.5494 6.90589 12.5494 6.46034 12.2523 6.16331L8.91075 2.67321Z" fill="#12991F"/>
</svg>
